<svg width="58" height="46" fill="none" xmlns="http://www.w3.org/2000/svg"><path d="M35.66 36.572H34.6V45.5h1.058a21.514 21.514 0 0021.485-21.489V.501H32.578V25.07h15.6a12.58 12.58 0 01-12.519 11.503zm-.966-13.62V2.615h20.334V24.01a19.395 19.395 0 01-18.315 19.343V38.66a14.696 14.696 0 0013.621-14.64v-1.057l-15.64-.01zM16.45 25.068A12.58 12.58 0 013.93 36.574H2.873V45.5h1.058A21.512 21.512 0 0025.42 24.011V.501H.856V25.07H16.45zM2.972 2.616h20.336V24.01A19.396 19.396 0 014.995 43.354V38.66a14.696 14.696 0 0013.621-14.64v-1.057H2.972V2.616z" fill="#F3A13D"/></svg>