<svg width="50" height="60" fill="none" xmlns="http://www.w3.org/2000/svg"><path d="M13.476 12.025a.94.94 0 00-.939.94 2.07 2.07 0 01-2.067 2.066 2.07 2.07 0 01-2.067-2.066 2.07 2.07 0 012.067-2.067.94.94 0 100-1.88 3.95 3.95 0 00-3.946 3.946 3.95 3.95 0 003.946 3.946 3.95 3.95 0 003.946-3.946.94.94 0 00-.94-.939zm0 11.023a.94.94 0 00-.939.94 2.07 2.07 0 01-2.067 2.066 2.07 2.07 0 01-2.067-2.067 2.07 2.07 0 012.067-2.066.94.94 0 100-1.88 3.95 3.95 0 00-3.946 3.946 3.95 3.95 0 003.946 3.946 3.95 3.95 0 003.946-3.946.94.94 0 00-.94-.939zM24.5 25.052h-7.014a.94.94 0 000 1.88H24.5a.94.94 0 000-1.88zm0-4.008h-7.014a.94.94 0 000 1.879H24.5a.94.94 0 000-1.88zm-2.004 15.031h-5.01a.94.94 0 000 1.88h5.01a.94.94 0 000-1.88zm2.004-4.008h-7.014a.94.94 0 000 1.879H24.5a.94.94 0 000-1.88zm9.02-18.038H17.484a.94.94 0 000 1.88h16.033a.94.94 0 000-1.88zm-4.01-4.008H17.486a.94.94 0 000 1.879H29.51a.94.94 0 000-1.88zM13.477 34.07a.94.94 0 00-.939.94 2.07 2.07 0 01-2.067 2.066 2.07 2.07 0 01-2.067-2.066 2.07 2.07 0 012.067-2.067.94.94 0 100-1.88 3.95 3.95 0 00-3.946 3.946 3.95 3.95 0 003.946 3.946 3.95 3.95 0 003.946-3.946.94.94 0 00-.94-.939z" fill="#F3A13D"/><path d="M37.526 0H3.456A2.947 2.947 0 00.511 2.944V45.03a2.947 2.947 0 002.943 2.944H20.49a.94.94 0 000-1.88H3.455a1.066 1.066 0 01-1.064-1.064V2.944c0-.587.477-1.065 1.064-1.065h34.071c.587 0 1.065.478 1.065 1.065v31.064a.94.94 0 101.88 0V2.944A2.947 2.947 0 0037.525 0z" fill="#F3A13D"/><path d="M46.396 38.097a3.466 3.466 0 00-2.437.685c-.55-.923-1.488-1.578-2.574-1.687a3.467 3.467 0 00-2.436.685c-.55-.924-1.489-1.578-2.574-1.687a3.471 3.471 0 00-1.918.36V24.489a3.45 3.45 0 00-1.134-2.555 3.46 3.46 0 00-2.663-.873c-1.734.174-3.092 1.742-3.092 3.57v11.995l-2.762 2.761a5.913 5.913 0 00-1.585 5.57l2.097 8.91A7.924 7.924 0 0033.061 60h8.473c4.386 0 7.954-3.568 7.954-7.954V41.667c0-1.828-1.358-3.396-3.092-3.57zm1.213 13.949a6.082 6.082 0 01-6.075 6.075h-8.473a6.052 6.052 0 01-5.914-4.684l-2.097-8.91a4.046 4.046 0 011.084-3.811l1.434-1.434v3.244a.94.94 0 001.879 0V24.631c0-.874.615-1.621 1.4-1.7a1.556 1.556 0 011.596.922c.089.2.135.417.135.636v16.534a.94.94 0 001.88 0V39.52a1.57 1.57 0 011.73-1.558c.785.08 1.4.826 1.4 1.7v2.363a.94.94 0 001.88 0v-1.503a1.569 1.569 0 011.73-1.558c.786.079 1.401.826 1.401 1.7v2.363a.94.94 0 101.88 0v-1.503a1.569 1.569 0 011.73-1.558c.785.079 1.401.826 1.401 1.7v10.38z" fill="#F3A13D"/></svg>