<svg width="51" height="50" fill="none" xmlns="http://www.w3.org/2000/svg"><g clip-path="url(#clip0_2016_1142)"><path d="M40.381 11.41l-.082-.047s-.003-.003-.005-.003l-7.602-4.458-.159-.093-3.538-2.076-.17-.1L21.138.127a.91.91 0 00-.927 0L1.055 11.36l-.086.05a.94.94 0 00-.463.814v22.57c0 .335.177.645.463.814L20.194 46.88a.805.805 0 00.183.087c.014.005.028.01.042.013.063.02.13.032.197.035l.059.002c.019 0 .038 0 .058-.002h.008a.555.555 0 00.055-.006.626.626 0 00.06-.01l.005-.001.054-.014a.958.958 0 00.246-.108l5.002-3.138a.865.865 0 00.124-.088c-.03-.05-.057-.1-.085-.15a12.45 12.45 0 01-.692-1.495.92.92 0 00-.273.104l-3.636 2.338v-20.94l-.002-.059a.587.587 0 00-.006-.057v-.007a1.074 1.074 0 00-.008-.051.75.75 0 00-.032-.122l-.02-.057-.024-.054a.565.565 0 00-.029-.053c-.005-.012-.012-.022-.019-.033a.554.554 0 00-.073-.102c-.008-.012-.019-.023-.028-.034a.683.683 0 00-.097-.093l-.034-.028a.932.932 0 00-.072-.05l-.003-.002-.016-.01-.463-.27-5.919-3.471 17.391-10.2 5.92 3.472.925.543v12.229c.635.103 1.253.254 1.852.45V12.225a.942.942 0 00-.463-.813zM20.675 2.027l5.918 3.47L9.2 15.696l-5.917-3.47 17.392-10.2zM10.126 18.41l1.853 1.087v4.343l-1.853-1.086V18.41zm9.622 5.643v20.396L2.358 34.25V13.853l5.917 3.47v5.973a.95.95 0 00.228.62l.032.034.033.033.038.033a.712.712 0 00.04.033.353.353 0 00.034.024l.035.023.004.003s.002 0 .002.002c.006.002.011.006.017.01l3.686 2.16.028.017a.812.812 0 00.157.071c.018.007.037.012.055.017.018.005.035.01.053.012a.49.49 0 00.078.013.807.807 0 00.108.007h.003a.792.792 0 00.163-.016h.005a.939.939 0 00.168-.049c.01-.002.019-.007.028-.011a.932.932 0 00.552-.74l.003-.03a.945.945 0 00.005-.092v-4.888l5.918 3.47zm-6.844-6.186l-1.852-1.086L28.444 6.582l1.852 1.086-17.392 10.198z" fill="#fff"/><path d="M13.783 25.766zm-5.309-1.887a.944.944 0 01-.2-.677v.094c0 .22.075.423.2.583zm3.979 2.409l-.012-.006-.018-.01a.39.39 0 00.03.016zm8.519 20.68zM1.054 11.36l-.086.05a.94.94 0 00-.463.814v.089a.937.937 0 01.549-.953zm19.621 13.09a.933.933 0 01-.926-.94c0-.337.176-.648.463-.816L39.456 11.41a.918.918 0 011.267.335.949.949 0 01-.33 1.287l-.01.006-19.244 11.284a.91.91 0 01-.462.126l-.002.001z" fill="#1A1A1A"/><path d="M40.844 25.448a12.228 12.228 0 00-3.802-.607c-.777 0-1.538.073-2.276.213-4.729.895-8.52 4.528-9.715 9.213a12.62 12.62 0 00-.391 3.397 12.598 12.598 0 00.85 4.342 12.484 12.484 0 00.693 1.494c.027.05.055.101.084.15C28.422 47.442 32.443 50 37.041 50a12.12 12.12 0 004.395-.82 12.386 12.386 0 004.495-3.011 12.63 12.63 0 003.495-8.748c0-5.59-3.608-10.34-8.583-11.973zm3.54 19.549a10.434 10.434 0 01-4.538 2.671 10.31 10.31 0 01-2.805.388c-3.085 0-5.864-1.362-7.78-3.527a10.674 10.674 0 01-2.69-7.108 10.523 10.523 0 01.133-1.696c.078-.498.192-.985.337-1.458 1.11-3.624 4.08-6.424 7.772-7.24a10.28 10.28 0 012.229-.242c5.774 0 10.472 4.77 10.472 10.636 0 2.962-1.2 5.646-3.13 7.576z" fill="#F3A13D"/><path d="M42.73 32.793l-3.07 4.678-1.04 1.585-2.004 3.052-.418.637a.813.813 0 01-.598.364h-.082a.81.81 0 01-.578-.243l-3.265-3.317a.84.84 0 010-1.152.81.81 0 01.455-.242h.256a.674.674 0 01.114.025.718.718 0 01.185.084c.052.03.1.069.145.112l1.217 1.237 1.344 1.366 2.658-4.047.77-1.172 2.552-3.887a.81.81 0 011.133-.23.836.836 0 01.226 1.15z" fill="#F3A13D"/></g><defs><clipPath id="clip0_2016_1142"><path fill="#fff" transform="translate(.5)" d="M0 0h50v50H0z"/></clipPath></defs></svg>