<svg width="20" height="17.794" fill="none" xmlns="http://www.w3.org/2000/svg"><path d="M10 17.79c-.29 0-.56-.1-.78-.29-.81-.71-1.59-1.37-2.27-1.96h-.01c-2.01-1.72-3.75-3.2-4.96-4.66C.63 9.25 0 7.7 0 6.01c0-1.65.56-3.16 1.58-4.27C2.62.61 4.04 0 5.58 0c1.16 0 2.21.36 3.14 1.08.47.36.9.81 1.28 1.33.37-.52.8-.97 1.27-1.33C12.2.36 13.25 0 14.41 0c1.54 0 2.96.61 4 1.74C19.43 2.85 20 4.36 20 6.01c0 1.69-.64 3.24-1.99 4.87-1.21 1.46-2.95 2.94-4.96 4.66-.69.59-1.47 1.25-2.28 1.96-.22.19-.49.29-.77.29zM5.58 1.17c-1.21 0-2.33.48-3.14 1.36-.82.89-1.27 2.13-1.27 3.48 0 1.42.53 2.69 1.71 4.12 1.15 1.38 2.85 2.84 4.82 4.52h.01c.69.59 1.47 1.25 2.28 1.97.82-.72 1.61-1.38 2.3-1.97 1.97-1.68 3.67-3.14 4.82-4.52 1.18-1.43 1.71-2.7 1.71-4.12 0-1.35-.45-2.59-1.27-3.48a4.22 4.22 0 00-3.14-1.36c-.89 0-1.71.28-2.43.84-.64.49-1.09 1.12-1.35 1.56-.13.23-.37.36-.63.36-.27 0-.51-.13-.64-.36-.26-.44-.71-1.07-1.35-1.56-.72-.56-1.54-.84-2.43-.84z" fill="#FFF"/></svg>