<svg width="30" height="30" fill="none" xmlns="http://www.w3.org/2000/svg"><g clip-path="url(#clip0_378_1711)"><path d="M16.254 7.15a8.024 8.024 0 014.369 2.267 8.075 8.075 0 012.267 4.369.85.85 0 00.842.709c.05 0 .095-.007.146-.013a.855.855 0 00.702-.988 9.764 9.764 0 00-2.741-5.287 9.764 9.764 0 00-5.287-2.741.86.86 0 00-.988.696.845.845 0 00.69.988zm13.752 6.097a16.064 16.064 0 00-4.514-8.705A16.072 16.072 0 0016.786.027a.852.852 0 00-.982.697.859.859 0 00.703.988c2.95.5 5.641 1.9 7.782 4.033a14.341 14.341 0 014.033 7.781.85.85 0 00.842.71c.05 0 .095-.007.146-.014a.84.84 0 00.696-.975z" fill="#F3A13D"/><path d="M23.75 18.598c-.614-.64-1.355-.982-2.14-.982-.778 0-1.525.336-2.165.975l-2.001 1.995c-.165-.089-.33-.171-.488-.253-.228-.115-.443-.222-.627-.336-1.874-1.19-3.577-2.742-5.21-4.75-.792-1-1.323-1.842-1.71-2.696.519-.475 1-.969 1.469-1.444.177-.177.354-.36.532-.538 1.33-1.33 1.33-3.053 0-4.382L9.68 4.458c-.196-.196-.399-.399-.588-.601-.38-.393-.78-.798-1.191-1.178-.614-.608-1.349-.93-2.121-.93s-1.52.322-2.153.93l-.013.013-2.152 2.172A4.633 4.633 0 00.089 7.81c-.152 1.848.393 3.571.81 4.698 1.026 2.767 2.559 5.331 4.844 8.08 2.774 3.311 6.11 5.926 9.922 7.768 1.456.69 3.4 1.507 5.572 1.647.133.006.272.013.399.013 1.462 0 2.69-.526 3.653-1.57.006-.014.019-.02.025-.032.33-.4.71-.76 1.108-1.146.273-.26.551-.532.823-.817.627-.652.957-1.412.957-2.191 0-.785-.336-1.539-.975-2.172l-3.477-3.49zm2.267 6.667c-.246.266-.5.506-.772.772-.411.393-.83.804-1.222 1.267-.64.683-1.393 1.006-2.38 1.006-.096 0-.197 0-.292-.006-1.88-.12-3.628-.855-4.939-1.482-3.584-1.735-6.73-4.198-9.346-7.32-2.159-2.602-3.603-5.008-4.558-7.592-.59-1.576-.804-2.805-.71-3.964.064-.74.349-1.355.874-1.88l2.16-2.158c.31-.291.639-.45.962-.45.4 0 .722.242.925.444l.019.018c.386.361.753.735 1.14 1.134.196.202.398.405.601.614l1.729 1.728c.67.671.67 1.292 0 1.963-.184.184-.361.368-.545.544a33.286 33.286 0 01-1.589 1.546c-.013.012-.025.018-.031.031-.545.545-.443 1.077-.33 1.438l.019.056c.45 1.09 1.083 2.115 2.045 3.337l.006.007c1.748 2.152 3.59 3.83 5.623 5.116.26.164.526.297.779.424.228.114.443.221.627.335.025.013.05.032.076.045.215.108.418.158.627.158.525 0 .855-.329.962-.437l2.166-2.165c.215-.216.557-.475.956-.475.393 0 .716.247.912.462l3.502 3.502c.65.646.65 1.311.004 1.982z" fill="#fff"/></g><defs><clipPath id="clip0_378_1711"><path fill="#fff" d="M0 0h30v30H0z"/></clipPath></defs></svg>