<svg width="51" height="50" fill="none" xmlns="http://www.w3.org/2000/svg"><path d="M30.987 36.018c4.24-4.569.793-12.377-5.502-12.286-6.295-.087-9.744 7.711-5.503 12.285a13.57 13.57 0 00-7.788 10.108 2.644 2.644 0 002.602 3.072h21.375a2.662 2.662 0 002.611-3.072 13.6 13.6 0 00-7.795-10.107zM19.89 31.114a5.603 5.603 0 015.595-5.595h.002a5.601 5.601 0 015.594 5.595c-.264 7.405-10.93 7.405-11.191 0zm16.936 15.994a.844.844 0 01-.654.304H14.796a.834.834 0 01-.644-.3.85.85 0 01-.194-.7 11.761 11.761 0 017.55-9.088 7.33 7.33 0 007.954 0 11.783 11.783 0 017.558 9.09.844.844 0 01-.194.694zm13.581-30.983a1.779 1.779 0 00-1.72-1.25l-2.86-.015-.879-2.702a1.809 1.809 0 00-3.44 0l-.898 2.717h-2.84a1.81 1.81 0 00-1.064 3.273l2.307 1.694-.878 2.701a1.809 1.809 0 002.783 2.022l2.324-1.67 2.297 1.67a1.808 1.808 0 002.783-2.022l-.869-2.726 2.297-1.67c.64-.456.907-1.277.657-2.022zm-4.004 2.245a1.802 1.802 0 00-.657 2.024l.843 2.725-2.297-1.67a1.806 1.806 0 00-2.127 0l-2.331 1.646.877-2.7a1.804 1.804 0 00-.656-2.024l-2.285-1.71h2.84a1.807 1.807 0 001.72-1.25c.008.02.911-2.785.92-2.701l.877 2.703c.242.745.936 1.25 1.72 1.25l2.853.04-2.297 1.667zm-33.475 4.702a1.8 1.8 0 00-.085-.529l-.87-2.726 2.297-1.67a1.808 1.808 0 00-1.062-3.27l-2.861-.016-.878-2.702a1.809 1.809 0 00-3.44 0l-.898 2.717h-2.84a1.817 1.817 0 00-1.063 3.272l2.305 1.694-.877 2.701a1.817 1.817 0 002.784 2.021l2.323-1.67c.834.517 2.525 2.13 3.361 2.023a1.825 1.825 0 001.804-1.845zm-2.661-2.678l.843 2.725c-.913-.574-2.51-2.118-3.36-2.017-.829-.104-2.525 1.465-3.395 1.993 1.449-4.374 1.588-3.706-2.066-6.433H5.13a1.807 1.807 0 001.72-1.25l.913-2.717c.012-.005.876 2.717.884 2.72.242.744.936 1.25 1.72 1.248l2.854.04-2.297 1.668a1.8 1.8 0 00-.657 2.023z" fill="#fff"/><path d="M15.404 11.362l3.663 2.662c.198.144.282.4.206.633l-1.399 4.305a2.363 2.363 0 003.62 2.629l3.661-2.661a.561.561 0 01.665 0l3.663 2.662a2.351 2.351 0 003.62-2.63l-1.399-4.305a.565.565 0 01.205-.633l3.663-2.66a2.352 2.352 0 00-1.381-4.256h-4.527a.565.565 0 01-.539-.391l-1.398-4.305a2.36 2.36 0 00-4.475 0l-1.398 4.305a.566.566 0 01-.54.391h-4.526a2.36 2.36 0 00-1.384 4.254zm.845-2.077a.543.543 0 01.54-.391h4.526a2.347 2.347 0 002.237-1.626l1.4-4.305a.563.563 0 011.075 0l1.399 4.305a2.347 2.347 0 002.237 1.626h4.527a.563.563 0 01.332 1.023l-3.662 2.661a2.346 2.346 0 00-.855 2.631l1.399 4.305a.566.566 0 01-.87.633l-3.663-2.662a2.345 2.345 0 00-2.765 0l-3.663 2.663a.563.563 0 01-.87-.633l1.398-4.305a2.348 2.348 0 00-.855-2.63l-3.662-2.662a.544.544 0 01-.205-.633z" fill="#F3A13D"/></svg>