<svg width="39" height="50" fill="none" xmlns="http://www.w3.org/2000/svg"><path fill-rule="evenodd" clip-rule="evenodd" d="M19.526 50a.777.777 0 01-.495-.178l-11.088-9.13a19.203 19.203 0 01-5.186-6.712A19.205 19.205 0 01.99 25.683l.243-17.039a.779.779 0 01.64-.755l2.847-.517c3.955-.718 7.023-2.054 8.9-3.048 1.91-1.013 3.014-1.891 3.129-1.984L19.042.342a.78.78 0 011.03.006l2.236 1.996c.134.107 1.24.98 3.125 1.98 1.876.993 4.944 2.329 8.9 3.047l2.846.517a.78.78 0 01.64.755l.243 17.04c.04 2.846-.57 5.714-1.767 8.297a19.202 19.202 0 01-5.186 6.712l-11.088 9.13a.776.776 0 01-.495.178zM2.782 9.307l-.234 16.399a17.636 17.636 0 001.622 7.619 17.639 17.639 0 004.763 6.164l10.593 8.723L30.12 39.49a17.635 17.635 0 004.764-6.164 17.636 17.636 0 001.622-7.62l-.236-16.4-2.217-.402c-4.152-.754-7.376-2.159-9.35-3.204-2.07-1.097-3.264-2.054-3.393-2.16a1.1 1.1 0 01-.026-.022l-1.737-1.55-1.786 1.555-.018.015c-.128.106-1.317 1.061-3.395 2.162-1.974 1.046-5.199 2.45-9.35 3.205l-2.217.402z" fill="#fff"/><path fill-rule="evenodd" clip-rule="evenodd" d="M19.525 45.378a.777.777 0 01-.495-.178l-8.853-7.29a15.667 15.667 0 01-4.23-5.475 15.663 15.663 0 01-1.442-6.768l.202-14.146a.779.779 0 01.64-.755c4.487-.815 7.963-2.349 10.09-3.492 2.309-1.242 3.57-2.305 3.583-2.316a.78.78 0 011.01 0c.012.01 1.274 1.074 3.583 2.315 2.127 1.144 5.603 2.678 10.09 3.492a.778.778 0 01.64.756l.201 14.147a15.668 15.668 0 01-1.44 6.767 15.68 15.68 0 01-4.231 5.476L20.02 45.2a.78.78 0 01-.495.177zm-13.269-33.2L6.063 25.69a13.946 13.946 0 005.104 11.019l8.358 6.882 8.358-6.882a13.946 13.946 0 005.104-11.018l-.193-13.512c-4.408-.88-7.834-2.407-9.967-3.56-1.593-.86-2.706-1.632-3.302-2.077-.595.445-1.709 1.218-3.302 2.078-2.133 1.152-5.56 2.68-9.967 3.56z" fill="#fff"/><path fill-rule="evenodd" clip-rule="evenodd" d="M19.526 31.868a8.336 8.336 0 01-5.934-2.458 8.336 8.336 0 01-2.457-5.934c0-2.241.873-4.348 2.457-5.933a8.336 8.336 0 015.934-2.458c2.242 0 4.349.873 5.934 2.458a8.337 8.337 0 012.457 5.933 8.337 8.337 0 01-2.457 5.934 8.336 8.336 0 01-5.934 2.458zm0-15.225a6.841 6.841 0 00-6.833 6.833 6.841 6.841 0 006.833 6.834 6.841 6.841 0 006.834-6.834 6.841 6.841 0 00-6.834-6.833z" fill="#F3A13D"/><path fill-rule="evenodd" clip-rule="evenodd" d="M18.04 26.828a.778.778 0 01-.552-.228l-2.172-2.173a.78.78 0 011.102-1.101l1.621 1.621 4.594-4.594a.779.779 0 011.102 1.102L18.59 26.6a.777.777 0 01-.55.228z" fill="#F3A13D"/></svg>