<svg width="40" height="40" fill="none" xmlns="http://www.w3.org/2000/svg"><g clip-path="url(#clip0_323_1972)"><path d="M10.661 18.665h8.662a.666.666 0 100-1.332H10.66a.666.666 0 100 1.332zm0 4.661c0 .368.298.666.666.666h15.325a.666.666 0 100-1.332H11.327a.666.666 0 00-.666.666zm17.519-8.852a.666.666 0 00.47.195h.067a.665.665 0 00.488-.293l5.33-7.99a.666.666 0 10-1.108-.74l-4.88 7.312-2.091-2.09a.667.667 0 00-.943.942l2.665 2.663.002.001z" fill="#fff"/><path d="M34.35 5.461a.667.667 0 00-.924.184l-4.88 7.313-2.09-2.09a.667.667 0 00-.943.942l2.665 2.663a.667.667 0 00.47.195h.067a.665.665 0 00.488-.292l5.33-7.992a.666.666 0 00-.184-.924l.002.001z" fill="#F3A13D"/><path d="M8.92 29.828l19.37-1.015a2.276 2.276 0 002.05-1.603l2.249-7.373a10.08 10.08 0 01-1.483.293l-2.04 6.69a.928.928 0 01-.844.666l-19.123.998-2.58-14.48h14.053a9.944 9.944 0 01-.453-1.333H6.281l-.495-2.78a.666.666 0 00-.655-.549H.667a.666.666 0 100 1.332h3.905l2.785 15.63c.24 1.345.388 2.18.512 2.697l-1.54 2.34a2.156 2.156 0 001.832 3.302h1.857A3.33 3.33 0 0012.634 40a3.33 3.33 0 002.671-5.353h6.7a3.299 3.299 0 00-.684 1.998 3.33 3.33 0 003.332 3.33 3.33 3.33 0 003.33-3.33 3.298 3.298 0 00-.683-1.998h2.016a.666.666 0 100-1.331L8.158 33.31a.827.827 0 01-.71-1.25l1.472-2.233zm15.733 4.82a2 2 0 011.999 1.997 2 2 0 01-3.998 0c0-1.103.895-1.998 1.999-1.998zm-11.993 0a2 2 0 011.999 1.997 2 2 0 01-3.998 0c0-1.103.895-1.998 1.999-1.998z" fill="#fff"/><path d="M29.894 0C24.32 0 19.788 4.531 19.788 10.101a10.045 10.045 0 00.785 3.902c1.53 3.639 5.132 6.2 9.32 6.2a10.036 10.036 0 002.696-.366c4.269-1.182 7.412-5.098 7.412-9.736C40 4.531 35.466 0 29.894 0zm0 18.641c-4.711 0-8.544-3.83-8.544-8.54 0-4.708 3.833-8.54 8.544-8.54s8.545 3.83 8.545 8.54c0 4.71-3.833 8.54-8.545 8.54z" fill="#F3A13D"/></g><defs><clipPath id="clip0_323_1972"><path fill="#fff" d="M0 0h40v40H0z"/></clipPath></defs></svg>