<svg width="20" height="20" fill="none" xmlns="http://www.w3.org/2000/svg"><path d="M.71 1.42h1.48c.22 0 .42.08.59.21.16.14.27.33.3.54l.48 2.92v.05l1.43 8.57a.716.716 0 00.71.57h11.42c.16.01.32-.05.45-.14.13-.1.22-.24.26-.4l2.14-8.57c.03-.11.03-.22.01-.33a.713.713 0 00-.4-.49.711.711 0 00-.32-.07H4.88l-.39-2.33C4.4 1.4 4.12.9 3.7.55 3.28.19 2.74-.01 2.19 0H.71C.52 0 .34.07.2.2.07.34 0 .52 0 .71a.703.703 0 00.71.71zm17.64 4.29l-1.79 7.14H6.31L5.12 5.71h13.23zm-2.66 10c-.42 0-.83.13-1.19.36-.35.24-.62.57-.78.96-.17.39-.21.82-.13 1.24.09.42.29.8.59 1.1.3.3.68.5 1.1.58.41.09.84.04 1.23-.12s.73-.43.96-.79c.24-.35.36-.76.36-1.19 0-.57-.22-1.11-.62-1.51-.4-.4-.95-.63-1.52-.63zm0 2.86c-.14 0-.28-.05-.39-.12a.763.763 0 01-.27-.32.853.853 0 01-.04-.42c.03-.14.1-.26.2-.36.1-.1.23-.17.36-.2.14-.03.29-.01.42.04.13.06.24.15.32.27.07.11.12.25.12.39 0 .19-.08.37-.21.51-.14.13-.32.21-.51.21zm-10.7-.72c0 .43.13.84.36 1.19.24.36.57.63.96.79.39.16.82.21 1.24.12.41-.08.79-.28 1.09-.58.3-.3.51-.68.59-1.1.08-.42.04-.85-.12-1.24s-.44-.72-.79-.96c-.35-.23-.77-.36-1.19-.36-.57 0-1.11.23-1.51.63-.4.4-.63.94-.63 1.51zm2.85 0c0 .14-.04.28-.12.4-.07.12-.19.21-.32.26-.13.06-.27.07-.41.04a.634.634 0 01-.36-.19.717.717 0 01-.16-.78c.06-.13.15-.24.26-.32.12-.08.26-.12.4-.12.19 0 .37.07.5.21.14.13.21.31.21.5z" fill="#FFF"/></svg>