<svg width="20" height="20" fill="none" xmlns="http://www.w3.org/2000/svg"><path d="M19.759 5.728L14.182.15a.516.516 0 00-.73 0l-.023.024a1.8 1.8 0 00-.53 1.28c0 .311.079.61.226.875L7.29 7.338a2.417 2.417 0 00-1.62-.617 2.419 2.419 0 00-1.723.713l-.035.035a.516.516 0 000 .73l3.341 3.34L4 14.793c-.066.067-1.606 1.654-2.618 2.917a69.285 69.285 0 01-1.165 1.434.515.515 0 00.728.728c.009-.007.224-.194 1.434-1.164 1.263-1.013 2.85-2.553 2.922-2.623l3.249-3.25 3.162 3.163a.514.514 0 00.73 0l.034-.035a2.42 2.42 0 00.713-1.722 2.417 2.417 0 00-.617-1.62l5.008-5.836a1.8 1.8 0 002.155-.303l.024-.024a.514.514 0 000-.73z" fill="#F3A13D"/></svg>