<svg width="57" height="56" fill="none" xmlns="http://www.w3.org/2000/svg"><path d="M43.886 39.367l11.37-11.37a4.422 4.422 0 000-6.247 4.389 4.389 0 00-2.13-1.178c.271-.583.41-1.219.41-1.862 0-1.18-.46-2.289-1.294-3.123a4.382 4.382 0 00-2.372-1.23 4.42 4.42 0 00-1.07-4.506 4.391 4.391 0 00-2.37-1.226 4.42 4.42 0 00-1.071-4.51 4.388 4.388 0 00-3.123-1.294c-.75 0-1.47.186-2.11.535l-.113-.121A7.822 7.822 0 0034.306.749h-9.204c-.648 0-1.172.525-1.172 1.173v1.537c0 .615.104 1.214.303 1.777a4.41 4.41 0 00-1.695-.336c-1.18 0-2.29.46-3.124 1.293a4.42 4.42 0 00-1.069 4.51 4.386 4.386 0 00-2.372 1.226 4.388 4.388 0 00-1.294 3.123c0 .478.077.944.222 1.384a4.384 4.384 0 00-2.37 1.23 4.425 4.425 0 00-.883 4.982c-.8.183-1.536.586-2.131 1.18a4.422 4.422 0 000 6.247l2.338 2.338L.343 43.925a1.172 1.172 0 001.658 1.658L13.624 33.96a4.389 4.389 0 002.183.576c1.18 0 2.289-.46 3.123-1.294a4.404 4.404 0 001.287-3.301c.06.002.119.004.178.004a4.4 4.4 0 003.123-1.291 4.388 4.388 0 001.29-3.302 4.403 4.403 0 003.3-1.287 4.388 4.388 0 001.288-3.301c.06.002.118.004.177.004a4.4 4.4 0 003.123-1.292 4.423 4.423 0 00.293-5.923l7.78-7.78a2.058 2.058 0 011.466-.607c.554 0 1.074.215 1.466.607a2.058 2.058 0 01.607 1.465c0 .554-.216 1.074-.607 1.466L42.553 9.85l-4.162 4.162a1.172 1.172 0 001.658 1.658l4.162-4.162a2.075 2.075 0 012.931 0 2.075 2.075 0 010 2.931l-1.147 1.147-3.015 3.015a1.172 1.172 0 001.657 1.658l3.015-3.015a2.057 2.057 0 011.466-.607c.554 0 1.074.215 1.466.607a2.06 2.06 0 01.607 1.465c0 .554-.216 1.075-.608 1.466l-1.574 1.575-1.44 1.44a1.172 1.172 0 001.657 1.658l1.441-1.442a2.075 2.075 0 012.93.002 2.075 2.075 0 010 2.93L42.227 37.71a15.879 15.879 0 01-10.685 4.655 1.17 1.17 0 00-.788.344L20.25 53.252a1.172 1.172 0 101.661 1.654l7.726-7.754a10.895 10.895 0 006.617 1.702l6.047 6.047a1.168 1.168 0 001.657 0c.458-.458.458-1.2 0-1.658l-6.429-6.43a1.175 1.175 0 00-.925-.339l-.371.03a8.557 8.557 0 01-4.891-1.064l.753-.756a18.212 18.212 0 0011.791-5.317zm-26.614-7.782a2.059 2.059 0 01-1.465.607 2.058 2.058 0 01-1.466-.607l-3.167-3.167a2.075 2.075 0 011.466-3.539c.553 0 1.074.216 1.465.608l3.167 3.167a2.075 2.075 0 010 2.93zm4.59-4.59a2.075 2.075 0 01-2.932 0l-3.167-3.166-1.575-1.575a2.075 2.075 0 011.466-3.538c.553 0 1.074.215 1.465.607l4.742 4.742c.392.391.607.912.607 1.465a2.06 2.06 0 01-.607 1.466zm4.588-4.588a2.075 2.075 0 01-2.931 0l-5.89-5.889a2.06 2.06 0 01-.606-1.466 2.068 2.068 0 012.073-2.072c.53 0 1.06.203 1.464.606l2.684 2.684 3.206 3.206a2.06 2.06 0 01.607 1.465 2.058 2.058 0 01-.607 1.466zm4.589-4.589a2.075 2.075 0 01-2.931 0l-5.89-5.889-.001-.002-1.146-1.145a2.075 2.075 0 01.673-3.38 2.069 2.069 0 012.259.449l7.036 7.036a2.058 2.058 0 01.607 1.465 2.057 2.057 0 01-.607 1.466zm.308-5.938l-3.22-3.22c.37.08.746.12 1.123.12h.026l3.216-.015a1.172 1.172 0 00-.005-2.344h-.006l-3.216.015h-.015a2.957 2.957 0 01-2.1-.867 2.957 2.957 0 01-.877-2.11v-.365h8.032a5.47 5.47 0 013.992 1.738l.048.05-6.998 6.998z" fill="#F3A13D"/></svg>