<svg width="60" height="60" fill="none" xmlns="http://www.w3.org/2000/svg"><path d="M58.468 36.515c-.552-.922-2.818-3.658-8.799-.175l-10.543 6.14a5.812 5.812 0 01-1.622.654 4.16 4.16 0 00.48-1.124c.54-2.013-.657-4.114-2.723-4.784a.962.962 0 00-.122-.03c-3.03-.547-6.021-1.628-8.424-2.497a77.542 77.542 0 00-2.294-.804c-2.7-.876-5.14.208-7.171 1.384l-7.842 4.54-.856-1.512a2.472 2.472 0 00-1.503-1.171 2.472 2.472 0 00-1.89.23L2.2 39.041a2.493 2.493 0 00-.94 3.393L9.957 57.8c.326.577.86.993 1.502 1.171a2.47 2.47 0 001.89-.23l2.959-1.674c.577-.327.993-.86 1.171-1.503a2.472 2.472 0 00-.23-1.89l-.779-1.376 1.786-1.03 13.503 3.618a8.65 8.65 0 002.244.306c1.46 0 2.857-.406 4.171-1.215l19.133-11.78c1.745-1.075 2.298-3.783 1.161-5.682zM15.672 55.063a.61.61 0 01-.288.372l-2.958 1.674a.61.61 0 01-.467.055.609.609 0 01-.37-.287L2.89 41.51a.61.61 0 01-.055-.466.61.61 0 01.288-.371l2.958-1.675a.603.603 0 01.466-.055.61.61 0 01.372.288l7.464 13.19 1.232 2.176a.61.61 0 01.056.466zM56.324 40.6L37.19 52.381c-1.517.933-3.182 1.167-4.948.693l-13.877-3.718a.938.938 0 00-.712.093l-2.108 1.218-5.215-9.216 7.858-4.55c1.758-1.017 3.66-1.87 5.654-1.223.64.208 1.38.475 2.234.784 2.452.886 5.5 1.988 8.661 2.566 1.1.385 1.716 1.448 1.435 2.497-.37 1.379-1.518 1.55-2.432 1.445-1.553-.319-3.029-.74-4.59-1.186-.74-.212-1.507-.43-2.294-.641a.937.937 0 10-.485 1.81c.772.208 1.53.424 2.264.634 1.609.46 3.129.893 4.766 1.228 1.17.237 2.411.426 3.605.297a7.72 7.72 0 003.063-1.011l10.543-6.141c3.034-1.767 5.369-1.947 6.247-.481.604 1.01.334 2.584-.536 3.12zM7.057 42.172a1.056 1.056 0 11-2.09.306 1.056 1.056 0 012.09-.306zm17.37-9.267h23.637a.937.937 0 00.938-.938V21.231c0-2.717-2.085-4.793-5.72-5.695a30 30 0 00-4.69-.78c2.29-1.18 3.91-4.027 3.91-7.346 0-3.993-2.398-6.473-6.257-6.473-3.858 0-6.255 2.48-6.255 6.473 0 3.311 1.611 6.154 3.892 7.338-1.58.13-3.145.395-4.68.79-3.684.947-5.713 2.969-5.713 5.693v10.736a.938.938 0 00.938.938zM31.865 7.41c0-4 2.744-4.598 4.38-4.598 1.637 0 4.381.598 4.381 4.598 0 3.337-1.965 6.052-4.38 6.052-2.416 0-4.382-2.715-4.382-6.052zm-6.5 13.821c0-2.29 2.34-3.372 4.303-3.877 4.286-1.102 8.714-1.101 13.163.002 1.604.398 4.296 1.43 4.296 3.875v9.799H43.63v-7.331a.937.937 0 10-1.875 0v7.33h-11.02V23.7a.938.938 0 00-1.875 0v7.33h-3.496v-9.798z" fill="#F3A13D"/></svg>