<svg width="51" height="50" fill="none" xmlns="http://www.w3.org/2000/svg"><g clip-path="url(#clip0_2016_252)"><path d="M13.826 23.33h10.827a.833.833 0 100-1.663H13.826a.832.832 0 100 1.664zm0 5.828c0 .459.373.832.833.832h19.156a.832.832 0 100-1.665H14.659a.832.832 0 00-.833.832zm21.898-11.066a.833.833 0 00.589.244h.083a.831.831 0 00.61-.365l6.663-9.99a.832.832 0 10-1.386-.924l-6.1 9.14-2.614-2.612a.834.834 0 00-1.178 1.177l3.331 3.33h.002z" fill="#fff"/><path d="M43.439 6.826a.833.833 0 00-1.156.23l-6.1 9.141-2.614-2.612a.834.834 0 00-1.178 1.177l3.331 3.33a.833.833 0 00.589.243h.083a.831.831 0 00.61-.365l6.663-9.99a.832.832 0 00-.23-1.155l.002.001z" fill="#F3A13D"/><path d="M11.65 37.285l24.212-1.269a2.845 2.845 0 002.563-2.003l2.81-9.217c-.6.167-1.22.29-1.852.366l-2.55 8.362a1.16 1.16 0 01-1.056.833l-23.903 1.248-3.225-18.1h17.566a12.433 12.433 0 01-.566-1.666H8.352l-.619-3.476a.833.833 0 00-.82-.685h-5.58a.833.833 0 100 1.664h4.881l3.483 19.537c.298 1.682.485 2.726.639 3.372l-1.924 2.926a2.696 2.696 0 002.29 4.126h2.32A4.163 4.163 0 0016.292 50a4.163 4.163 0 003.34-6.691h8.374a4.124 4.124 0 00-.855 2.497c0 2.3 1.864 4.163 4.165 4.163 2.3 0 4.164-1.864 4.164-4.163a4.123 4.123 0 00-.854-2.497h2.52a.832.832 0 100-1.664l-26.449-.006a1.034 1.034 0 01-.886-1.564l1.839-2.79zm19.666 6.024a2.499 2.499 0 012.499 2.497 2.499 2.499 0 01-4.998 0 2.498 2.498 0 012.499-2.497zm-14.991 0a2.499 2.499 0 012.498 2.497 2.499 2.499 0 01-4.997 0 2.498 2.498 0 012.499-2.497z" fill="#fff"/><path d="M37.867 0C30.9 0 25.235 5.664 25.235 12.627a12.554 12.554 0 00.98 4.877c1.913 4.548 6.416 7.749 11.652 7.749a12.545 12.545 0 003.369-.457c5.336-1.477 9.264-6.373 9.264-12.17C50.5 5.665 44.832 0 37.867 0zm0 23.302c-5.89 0-10.68-4.789-10.68-10.675 0-5.886 4.79-10.676 10.68-10.676 5.889 0 10.681 4.789 10.681 10.676 0 5.887-4.791 10.675-10.681 10.675z" fill="#F3A13D"/></g><defs><clipPath id="clip0_2016_252"><path fill="#fff" transform="translate(.5)" d="M0 0h50v50H0z"/></clipPath></defs></svg>