<svg width="50" height="50" fill="none" xmlns="http://www.w3.org/2000/svg"><path d="M46.847 23.955h-.717v-3.29a12.398 12.398 0 01-1.436 1.444v4.681h-7.898a.754.754 0 00-.13.012c-.003.002-.006.002-.01.002a1.117 1.117 0 00-.055.014l-.012.003a.67.67 0 00-.048.016l-.018.007-.04.018-.024.012-.029.017a.571.571 0 00-.032.02l-.02.013a.845.845 0 00-.036.028l-.015.012c-.012.012-.025.022-.036.034l-.02.021-.028.03a.714.714 0 00-.042.057l-3.828 5.67a.64.64 0 00-.067.126c-.008.016-.013.032-.019.05a.35.35 0 00-.022.081l-.007.047c0 .007-.002.014-.003.02l-.002.04-.001.03v.03c.002.013.002.026.003.04l.003.02.007.047.004.014a.518.518 0 00.014.053c0 .005.002.01.004.016l.019.049a.66.66 0 00.067.124l3.828 5.67a.578.578 0 00.05.066l.019.019a.693.693 0 00.104.093c.007.004.012.01.019.015a.907.907 0 00.067.04l.018.008a.744.744 0 00.217.067l.022.003c.024.003.05.005.075.005h7.902v4.962c0 1.694-1.395 3.071-3.11 3.071H4.547c-1.715 0-3.11-1.377-3.11-3.071l-.001-.011V17.537a4.561 4.561 0 003.11 1.22H25.77a12.018 12.018 0 01-.68-1.417H4.546c-1.715 0-3.11-1.378-3.11-3.072 0-1.693 1.395-3.071 3.11-3.071h1.952L5.9 13.56H4.547a.713.713 0 00-.718.708c0 .391.32.71.718.71h19.867c-.083-.465-.14-.938-.168-1.418H7.38l1.51-5.97 12.666 3.575h.002l2.702.762c.055-.736-.552 1.24.36-2.148.911-3.387-.206.771-2.749 0-2.543-.77-13.3-3.753-13.3-3.753l-.011-.002-.012-.003-.024-.005a.52.52 0 00-.037-.007l-.033-.004A.554.554 0 008.415 6h-.071l-.03.002c-.014 0-.027.003-.04.005-.01 0-.019.002-.028.004-.014.003-.028.005-.041.009l-.026.006a.696.696 0 00-.041.014l-.023.008a.311.311 0 00-.041.017l-.022.01-.04.021-.02.013-.037.024-.02.014c-.01.01-.023.02-.034.029l-.019.017-.03.03a.341.341 0 01-.019.02l-.027.031-.017.025a.613.613 0 00-.039.06l-.017.031a.508.508 0 01-.015.033.252.252 0 00-.014.033l-.012.034-.008.023c0 .004 0 .008-.003.012l-.003.01-.82 3.243H4.545c-2.5 0-4.537 2.007-4.545 4.475v30.258l.001.022C.013 46.998 2.047 49 4.547 49h37.037c2.506 0 4.545-2.013 4.546-4.488v-4.964h.717c1.187 0 2.153-.953 2.153-2.126v-11.34c0-1.173-.966-2.127-2.153-2.127zm.718 13.467c0 .39-.323.709-.718.709h-9.665l-3.35-4.962 3.35-4.961h9.665l.03-.002c.234-.003.466-.043.688-.121v9.337zm-.718-10.633l-.015.001h-.702v-1.417h.717c.395 0 .718.317.718.708a.713.713 0 01-.718.708z" fill="#fff"/><path d="M41.5 28c-1.38 0-2.5 1.122-2.5 2.5s1.12 2.5 2.5 2.5a2.5 2.5 0 000-5zm0 3.636a1.137 1.137 0 010-2.272c.626 0 1.136.51 1.136 1.136 0 .626-.51 1.136-1.136 1.136z" fill="#fff"/><path d="M37.36 0c-5.878 0-10.83 4.03-12.239 9.472a12.485 12.485 0 00-.402 3.169 12.46 12.46 0 00.415 3.216 12.383 12.383 0 001.162 2.892c2.157 3.892 6.308 6.531 11.062 6.531a12.558 12.558 0 003.371-.457 12.62 12.62 0 004.876-2.611 12.72 12.72 0 001.465-1.491A12.577 12.577 0 0050 12.64C50 5.67 44.33 0 37.36 0zm7.66 20.085a10.654 10.654 0 01-7.66 3.242 10.68 10.68 0 01-8.764-4.578 10.596 10.596 0 01-1.898-5.371 10.826 10.826 0 01-.016-1.137c.034-.96.197-1.89.47-2.77 1.354-4.35 5.417-7.518 10.207-7.518 5.894 0 10.688 4.794 10.688 10.688a10.665 10.665 0 01-3.027 7.444z" fill="#F3A13D"/><path d="M43.165 7.99l-.987 1.482-.977 1.465-1.628 2.44-.976 1.466-1.628 2.441-.471.706a.831.831 0 01-.61.366h-.083a.834.834 0 01-.59-.244l-3.333-3.333a.835.835 0 011.178-1.178l1.243 1.242 1.372 1.373.916-1.373.976-1.465 1.63-2.441.976-1.465 1.605-2.407a.834.834 0 111.387.925z" fill="#F3A13D"/></svg>