<svg width="22" height="17.619" fill="none" xmlns="http://www.w3.org/2000/svg"><path d="M.68 3.55h11.2c.3 1.24 1.43 2.17 2.78 2.17 1.34 0 2.47-.93 2.77-2.17h3.88c.38 0 .69-.31.69-.69 0-.38-.31-.69-.69-.69h-3.88A2.844 2.844 0 0014.66 0c-1.35 0-2.48.92-2.78 2.17H.68c-.38 0-.68.31-.68.69 0 .38.3.69.68.69zm13.98-2.18c.82 0 1.48.67 1.48 1.49a1.485 1.485 0 11-2.97 0c0-.82.66-1.49 1.49-1.49zM.68 9.49h3.88a2.856 2.856 0 005.55 0h11.2c.38 0 .69-.31.69-.69 0-.38-.31-.68-.69-.68h-11.2a2.856 2.856 0 00-5.55 0H.68c-.38 0-.68.3-.68.68 0 .38.3.69.68.69zm6.65-2.17c.83 0 1.49.66 1.49 1.48s-.66 1.49-1.49 1.49c-.82 0-1.48-.67-1.48-1.49s.66-1.48 1.48-1.48zm13.98 6.74h-3.88a2.855 2.855 0 00-2.77-2.17c-1.35 0-2.48.93-2.78 2.17H.68c-.38 0-.68.31-.68.69 0 .38.3.69.68.69h11.2c.3 1.25 1.43 2.17 2.78 2.17 1.34 0 2.47-.92 2.77-2.17h3.88c.38 0 .69-.31.69-.69 0-.38-.31-.69-.69-.69zm-6.65 2.18c-.83 0-1.49-.67-1.49-1.49s.66-1.49 1.49-1.49c.82 0 1.48.67 1.48 1.49s-.66 1.49-1.48 1.49z" fill="#3E3E3E"/></svg>