<svg width="41" height="50" fill="none" xmlns="http://www.w3.org/2000/svg"><path d="M40.05 45.05l-5.647-14.848a4.834 4.834 0 001.426-1.301 4.755 4.755 0 00.763-3.974 3.23 3.23 0 011.087-3.271 4.765 4.765 0 00-.009-7.381 3.23 3.23 0 01-1.076-3.273 4.75 4.75 0 00-.765-3.966 4.873 4.873 0 00-3.631-1.998 3.322 3.322 0 01-2.84-2.029 4.836 4.836 0 00-2.99-2.765 4.913 4.913 0 00-4.108.489 3.376 3.376 0 01-3.52 0 4.914 4.914 0 00-5.908.564 4.836 4.836 0 00-1.189 1.712 3.325 3.325 0 01-2.848 2.03A4.867 4.867 0 005.17 7.037a4.755 4.755 0 00-.761 3.973 3.231 3.231 0 01-1.088 3.273 4.767 4.767 0 00.01 7.38 3.23 3.23 0 011.075 3.273 4.75 4.75 0 00.765 3.966c.383.525.868.967 1.426 1.3L.95 45.051a.781.781 0 00.994 1.012l6.15-2.21 3.127 5.74a.782.782 0 00.685.407l.053-.002a.78.78 0 00.678-.501l5.287-13.895a4.92 4.92 0 00.816-.398 3.377 3.377 0 013.52 0c.259.156.531.288.814.394l5.29 13.898a.782.782 0 00.677.502l.053.001a.78.78 0 00.686-.408l3.125-5.74 6.151 2.212a.78.78 0 00.994-1.012zm-28.269 2.303l-2.633-4.836a.781.781 0 00-.95-.361l-5.184 1.863L8.05 30.783c.248.058.5.097.754.116a3.323 3.323 0 012.84 2.03 4.835 4.835 0 002.99 2.765c.483.156.987.236 1.495.239l-4.347 11.42zm6.138-13.478a3.347 3.347 0 01-2.803.333 3.275 3.275 0 01-2.025-1.871A4.898 4.898 0 008.9 29.34a3.31 3.31 0 01-2.464-1.356 3.195 3.195 0 01-.512-2.672 4.802 4.802 0 00-1.608-4.861 3.205 3.205 0 01.009-4.971 4.801 4.801 0 001.597-4.863 3.19 3.19 0 01.514-2.664A3.316 3.316 0 018.91 6.597 4.894 4.894 0 0013.09 3.6a3.272 3.272 0 012.027-1.871 3.353 3.353 0 012.803.333 4.953 4.953 0 005.163 0 3.351 3.351 0 014.022.379c.35.323.625.719.807 1.16a4.898 4.898 0 004.187 2.996 3.31 3.31 0 012.466 1.356 3.197 3.197 0 01.512 2.672 4.802 4.802 0 001.608 4.86 3.204 3.204 0 01-.01 4.972 4.802 4.802 0 00-1.596 4.862 3.19 3.19 0 01-.514 2.664 3.316 3.316 0 01-2.473 1.356 4.895 4.895 0 00-4.18 2.997 3.273 3.273 0 01-2.027 1.87 3.346 3.346 0 01-2.804-.332 4.954 4.954 0 00-5.162 0zm14.885 8.28a.781.781 0 00-.95.362l-2.633 4.836-4.346-11.419a4.94 4.94 0 001.494-.24 4.837 4.837 0 002.99-2.766 3.323 3.323 0 012.847-2.03c.251-.019.501-.058.747-.115l5.035 13.235-5.184-1.862z" fill="#fff"/><path d="M32.219 17.969A11.718 11.718 0 1020.5 29.687 11.732 11.732 0 0032.219 17.97zM20.5 28.125a10.157 10.157 0 1110.156-10.156A10.168 10.168 0 0120.5 28.125z" fill="#fff"/><path d="M26.713 15.378l-3.809-.553-1.703-3.452a.813.813 0 00-1.4 0l-1.705 3.452-3.81.553a.782.782 0 00-.433 1.333l2.758 2.687-.65 3.793a.781.781 0 001.132.824l3.407-1.79 3.407 1.79a.78.78 0 001.133-.824l-.65-3.793 2.757-2.687a.78.78 0 00-.434-1.333zm-3.708 3.188a.783.783 0 00-.224.691l.452 2.638-2.37-1.245a.782.782 0 00-.726 0l-2.37 1.245.453-2.638a.782.782 0 00-.225-.691l-1.917-1.87 2.649-.384a.78.78 0 00.589-.428l1.184-2.4 1.185 2.4a.78.78 0 00.588.428l2.649.385-1.917 1.869z" fill="#F3A13D"/></svg>