<svg width="39" height="50" fill="none" xmlns="http://www.w3.org/2000/svg"><path d="M23.895 29.98c-2.637 0-4.2 1.27-5.372 3.418-1.27-2.05-2.734-3.418-5.468-3.418C9.735 29.98 7 32.813 7 36.328c0 4.688 3.516 9.18 7.324 13.379.196.098.293.195.489.195.195 0 .39-.097.488-.195.293-.195.293-.684.097-.977-3.613-3.906-7.03-8.203-7.03-12.402 0-2.734 2.148-4.98 4.687-4.98 2.246 0 3.418.976 4.883 3.808.097.196.39.39.683.39.195 0 .488-.194.586-.39 1.27-2.832 2.54-3.808 4.688-3.808 2.636 0 4.687 2.246 4.687 4.98 0 4.102-3.223 8.3-6.055 11.524-.195.293-.195.78.098.976.293.293.684.195.977 0 3.125-3.613 6.347-8.008 6.347-12.5 0-3.516-2.637-6.348-6.055-6.348z" fill="#F3A13D"/><path fill-rule="evenodd" clip-rule="evenodd" d="M16.96 50c-.488 0-.976 0-1.464-.098-6.348-.488-11.328-4.297-13.574-10.449C-.813 32.227.262 24.22 4.558 18.555a.639.639 0 01.88-.196c.292.098.39.489.292.782-1.074 3.906-.781 6.933.879 8.105.879.586 1.953.586 2.734 0 1.172-.879 1.563-2.441.977-4.394-.098-.196-.781-1.954-.586-4.102.098-2.148.977-5.176 4.492-7.226.098 0 3.516-1.856 4.102-4.493.195-1.074-.195-2.246-1.27-3.418-.195-.293-.195-.683 0-.879.196-.293.489-.39.782-.195.097 0 1.66.684 3.027 2.149 1.855 1.855 2.441 4.296 1.66 6.836-1.66 4.882-.39 8.105 1.367 9.472 1.172.977 2.54 1.172 3.614.488 1.757-1.074 2.343-3.906 1.562-7.714-.098-.391.098-.684.39-.782.294-.195.587 0 .782.196 9.277 13.28 6.348 22.656 3.808 27.05-1.855 3.223-4.59 5.86-8.105 7.52C23.113 49.219 19.988 50 16.961 50zM3.68 22.461c-2.344 4.883-2.54 10.938-.489 16.602 2.05 5.566 6.543 8.984 12.402 9.472 6.934.586 13.868-3.027 17.286-8.984 3.808-6.446 3.027-14.649-2.149-23.145.098 4.102-1.66 5.762-2.539 6.25-1.562.977-3.515.782-5.176-.586-2.05-1.66-3.71-5.468-1.758-10.937.586-2.05.098-3.906-1.367-5.567-.097-.097-.195-.195-.39-.293.195.684.293 1.368.097 2.051-.586 3.223-4.394 5.176-4.687 5.371-2.442 1.465-3.711 3.516-3.906 6.153-.098 1.953.585 3.515.585 3.515v.098c.88 2.93-.097 4.98-1.367 5.86-1.367.976-3.027.976-4.394 0-.781-.489-2.344-2.15-2.149-5.86z" fill="#fff"/><path d="M38.543 4.004c-.098-.293-.293-.488-.586-.488l-3.028-.293L33.66.39c-.097-.195-.39-.39-.683-.39-.195 0-.488.195-.586.39l-1.27 2.735-3.124.39c-.195 0-.39.196-.488.489-.098.195-.098.488.097.684l2.344 2.148-.684 3.125c0 .195.098.488.293.684.293.097.489.097.782 0l2.636-1.563 2.735 1.563c.097.097.195.097.293.097.195 0 .293 0 .39-.098.196-.195.39-.39.293-.683L36.2 6.836l2.148-2.149c.196-.195.293-.488.196-.683zm-3.614 2.148c-.097.196-.195.391-.195.586l.39 1.953-1.757-.976c-.098-.098-.195-.098-.39-.098-.098 0-.196 0-.294.098l-1.758.976.391-1.953c.098-.195 0-.39-.195-.586l-1.465-1.465 1.953-.195c.293 0 .488-.195.586-.39l.781-1.758.88 1.758c.097.195.292.39.585.39l1.953.196-1.465 1.464zM9.05 11.621c.098.098.195.098.293.098.195 0 .293-.098.488-.098a.76.76 0 00.196-.781L9.44 7.813l2.246-2.051c.195-.196.293-.489.195-.684-.098-.293-.293-.39-.586-.488L8.27 4.2 7 1.367c-.097-.195-.39-.39-.683-.39-.196 0-.489.097-.586.39L4.46 4.102l-3.125.488c-.195 0-.39.195-.488.488-.098.195 0 .488.195.684L3.191 7.91l-.489 3.027c-.097.293 0 .489.196.684.293.098.488.098.78 0l2.638-1.465 2.734 1.465zM4.265 9.766l.293-2.051c.098-.195 0-.39-.195-.586L2.995 5.762l1.953-.293c.293 0 .489-.196.586-.39l.782-1.856.879 1.855c.097.195.293.39.488.39l2.05.294L8.27 7.129c-.196.098-.293.39-.293.586l.488 2.05-1.758-.976a.834.834 0 00-.683 0l-1.758.977z" fill="#fff"/></svg>