<svg width="16.686" height="20" fill="none" xmlns="http://www.w3.org/2000/svg"><path d="M8.21 9.63c1.33 0 2.47-.48 3.41-1.41.93-.94 1.41-2.08 1.41-3.41 0-1.32-.48-2.47-1.41-3.4C10.68.47 9.54 0 8.21 0c-1.32 0-2.47.47-3.4 1.41-.94.93-1.42 2.08-1.42 3.4 0 1.33.48 2.47 1.42 3.41.93.93 2.08 1.41 3.4 1.41zm-2.58-7.4c.72-.71 1.57-1.06 2.58-1.06 1.02 0 1.86.35 2.58 1.06.72.72 1.07 1.57 1.07 2.58 0 1.02-.35 1.86-1.07 2.58-.72.72-1.56 1.07-2.58 1.07-1.01 0-1.86-.35-2.58-1.07-.71-.72-1.06-1.56-1.06-2.58 0-1.01.35-1.86 1.06-2.58zm11.01 13.14c-.03-.39-.08-.81-.16-1.26-.08-.45-.19-.88-.31-1.27-.13-.4-.31-.8-.52-1.19-.23-.39-.49-.74-.79-1.02-.31-.3-.69-.54-1.13-.71-.44-.18-.93-.26-1.45-.26-.2 0-.4.08-.78.33-.27.17-.54.35-.82.52-.26.17-.61.33-1.05.47-.43.14-.86.21-1.29.21a4.1 4.1 0 01-1.29-.21c-.44-.14-.8-.3-1.06-.47-.3-.19-.58-.37-.81-.52-.39-.25-.58-.33-.79-.33-.52 0-1 .08-1.44.26-.44.17-.82.41-1.13.71-.3.28-.56.63-.79 1.02-.22.39-.39.79-.52 1.19-.13.39-.23.82-.31 1.27-.08.45-.14.87-.16 1.26-.03.39-.04.78-.04 1.19 0 1.04.33 1.88.98 2.51.65.61 1.5.93 2.54.93h9.63c1.04 0 1.9-.32 2.54-.93.66-.62.99-1.47.99-2.51 0-.41-.01-.81-.04-1.19zm-1.75 2.85c-.43.41-1 .6-1.74.6H3.52c-.74 0-1.3-.19-1.73-.6-.42-.4-.62-.94-.62-1.66 0-.38.01-.75.03-1.1.03-.35.08-.74.15-1.14.07-.4.16-.78.27-1.12.11-.33.25-.65.43-.97.17-.29.36-.55.58-.75.2-.2.45-.35.75-.47.28-.11.59-.17.92-.18.04.02.12.06.24.14.24.16.51.34.82.53.35.22.79.42 1.33.59.54.18 1.1.27 1.65.27.55 0 1.1-.09 1.65-.27.53-.17.98-.37 1.32-.59.32-.2.59-.37.83-.53.12-.08.19-.12.23-.14.34.01.65.07.93.18.29.12.55.27.75.47.21.2.41.46.58.75.17.32.32.64.42.97.11.34.2.72.28 1.12.07.4.12.79.14 1.14.03.35.04.72.04 1.1 0 .72-.2 1.26-.62 1.66z" fill="#FFF"/></svg>