<svg width="80" height="37" viewBox="0 0 80 37" fill="none" xmlns="http://www.w3.org/2000/svg">
<rect x="0.5" y="0.5" width="79" height="36" rx="1.5" fill="#E1DEDB"/>
<rect x="0.5" y="0.5" width="79" height="36" rx="1.5" stroke="#BBBBBB"/>
<path d="M39.6464 27.3536C39.8417 27.5488 40.1583 27.5488 40.3536 27.3536L43.5355 24.1716C43.7308 23.9763 43.7308 23.6597 43.5355 23.4645C43.3403 23.2692 43.0237 23.2692 42.8284 23.4645L40 26.2929L37.1716 23.4645C36.9763 23.2692 36.6597 23.2692 36.4645 23.4645C36.2692 23.6597 36.2692 23.9763 36.4645 24.1716L39.6464 27.3536ZM39.5 10L39.5 27L40.5 27L40.5 10L39.5 10Z" fill="#BBBBBB"/>
</svg>
