<svg width="8.134277" height="4.669067" viewBox="0 0 8.13428 4.66907" fill="none" xmlns="http://www.w3.org/2000/svg" xmlns:xlink="http://www.w3.org/1999/xlink">
	<desc>
			Created with Pixso.
	</desc>
	<defs/>
	<path id="16" d="M4.08 4.66C4 4.66 3.93 4.65 3.86 4.62C3.79 4.59 3.72 4.55 3.67 4.49L0.17 0.99C0.06 0.89 0 0.74 0 0.58C0 0.43 0.06 0.28 0.17 0.17C0.28 0.06 0.43 0 0.58 0C0.74 0 0.89 0.06 1 0.17L4.08 3.26L7.17 0.17C7.28 0.08 7.42 0.03 7.57 0.03C7.72 0.04 7.85 0.1 7.96 0.2C8.06 0.31 8.12 0.45 8.13 0.59C8.13 0.74 8.08 0.88 7.99 0.99L4.49 4.49C4.38 4.6 4.23 4.66 4.08 4.66Z" fill="#FFFFFF" fill-opacity="1.000000" fill-rule="nonzero"/>
</svg>
