<svg width="40" height="40" viewBox="0 0 40 40" fill="none" xmlns="http://www.w3.org/2000/svg">
<g clip-path="url(#clip0_323_1972)">
<path d="M10.6611 18.6648H19.3225C19.6902 18.6648 19.9885 18.3667 19.9885 17.9991C19.9885 17.6315 19.6902 17.3334 19.3225 17.3334H10.6611C10.2934 17.3334 9.99512 17.6315 9.99512 17.9991C9.99512 18.3667 10.2934 18.6648 10.6611 18.6648ZM10.6611 23.3261C10.6611 23.6937 10.9594 23.9918 11.3272 23.9918H26.6518C27.0195 23.9918 27.3178 23.6937 27.3178 23.3261C27.3178 22.9585 27.0195 22.6604 26.6518 22.6604H11.3272C10.9594 22.6604 10.6611 22.9585 10.6611 23.3261ZM28.1798 14.474C28.3047 14.5989 28.4741 14.6691 28.6506 14.6691H28.717C28.9153 14.6496 29.0949 14.5419 29.205 14.3765L34.5354 6.38524C34.74 6.07932 34.6572 5.66571 34.3512 5.46125C34.0451 5.25679 33.6313 5.33951 33.4267 5.64542L28.5467 12.9577L26.4558 10.8678C26.1911 10.6126 25.7695 10.6197 25.5134 10.8842C25.2643 11.1425 25.2643 11.5515 25.5134 11.8098L28.1782 14.4733L28.1798 14.474Z" fill="white"/>
<path d="M34.3508 5.46125C34.0447 5.25679 33.6309 5.33951 33.4263 5.64542L28.5464 12.9577L26.4554 10.8678C26.1907 10.6126 25.7691 10.6197 25.513 10.8842C25.2639 11.1425 25.2639 11.5515 25.513 11.8098L28.1778 14.4733C28.3027 14.5981 28.4722 14.6684 28.6486 14.6684H28.715C28.9133 14.6489 29.0929 14.5412 29.203 14.3757L34.5335 6.38446C34.738 6.07854 34.6553 5.66493 34.3492 5.46047L34.3508 5.46125Z" fill="#F3A13D"/>
<path d="M8.91977 29.8284L28.2897 28.8131C29.2415 28.7608 30.0597 28.1208 30.34 27.2101L32.5887 19.8369C32.1077 19.9704 31.6127 20.0687 31.106 20.1296L29.0666 26.8191C28.9557 27.1984 28.6168 27.4661 28.2217 27.4856L9.09936 28.4845L6.51884 14.0035H20.5723C20.3912 13.5735 20.2397 13.1286 20.1195 12.6713H6.28148L5.78645 9.89078C5.72946 9.57316 5.45305 9.34216 5.13059 9.34216H0.666797C0.298263 9.34216 0 9.64028 0 10.0078C0 10.3754 0.298263 10.6735 0.666797 10.6735H4.57154L7.35741 26.3033C7.59633 27.6487 7.74546 28.4837 7.86883 29.0011L6.32989 31.3415C5.69744 32.3514 6.00429 33.6827 7.01542 34.3148C7.35897 34.5295 7.75561 34.6434 8.16084 34.6426H10.0176C9.5733 35.2162 9.33125 35.9201 9.32813 36.6451C9.31407 38.4845 10.7945 39.986 12.634 40C14.4736 40.0141 15.9766 38.5352 15.9906 36.6958C15.9961 35.956 15.7548 35.2357 15.3051 34.6473H22.0051C21.5639 35.2209 21.3242 35.9225 21.3211 36.6451C21.3211 38.4845 22.8124 39.9751 24.6527 39.9751C26.4931 39.9751 27.9836 38.4845 27.9836 36.6451C27.9813 35.9225 27.7408 35.2209 27.3004 34.6473H29.3164C29.6842 34.6473 29.9824 34.3492 29.9824 33.9816C29.9824 33.6141 29.6842 33.3159 29.3164 33.3159L8.15772 33.3113C7.70174 33.3113 7.33086 32.9414 7.33086 32.4848C7.33086 32.335 7.37146 32.1883 7.44876 32.0603L8.91977 29.8284ZM24.6527 34.6473C25.756 34.6473 26.6516 35.5424 26.6516 36.6451C26.6516 37.7478 25.756 38.6429 24.6527 38.6429C23.5495 38.6429 22.6539 37.7486 22.6539 36.6451C22.6539 35.5416 23.5487 34.6473 24.6527 34.6473ZM12.6598 34.6473C13.763 34.6473 14.6586 35.5424 14.6586 36.6451C14.6586 37.7478 13.763 38.6429 12.6598 38.6429C11.5565 38.6429 10.6609 37.7486 10.6609 36.6451C10.6609 35.5416 11.5557 34.6473 12.6598 34.6473Z" fill="white"/>
<path d="M29.8939 0C24.3214 0 19.7881 4.53098 19.7881 10.1014C19.7881 10.9888 19.9029 11.8503 20.1199 12.6713C20.2402 13.1286 20.3916 13.5734 20.5728 14.0034C22.1031 17.6416 25.7049 20.2021 29.8939 20.2021C30.3038 20.2021 30.709 20.1779 31.1065 20.1295C31.6132 20.0687 32.1082 19.9703 32.5892 19.8369C36.8578 18.6554 40.0005 14.7386 40.0005 10.1014C40.0005 4.53098 35.4664 0 29.8939 0ZM29.8939 18.6413C25.1826 18.6413 21.3497 14.8104 21.3497 10.1014C21.3497 5.39254 25.1826 1.56079 29.8939 1.56079C34.6052 1.56079 38.4389 5.39176 38.4389 10.1014C38.4389 14.8111 34.606 18.6413 29.8939 18.6413Z" fill="#F3A13D"/>
</g>
<defs>
<clipPath id="clip0_323_1972">
<rect width="40" height="40" fill="white"/>
</clipPath>
</defs>
</svg>
