<svg width="58" height="46" viewBox="0 0 58 46" fill="none" xmlns="http://www.w3.org/2000/svg">
<path d="M35.6593 36.5723L34.6013 36.5723L34.6013 45.5L35.6593 45.5C41.3556 45.4922 46.8164 43.2255 50.8439 39.1972C54.8714 35.1689 57.137 29.7077 57.1437 24.0114L57.1437 0.501904L32.5783 0.501901L32.5783 25.0694L48.1779 25.0694C47.9084 28.2052 46.4733 31.1261 44.1558 33.2556C41.8382 35.3851 38.8066 36.5685 35.6593 36.5723ZM34.6944 22.9512L34.6944 2.61585L55.0276 2.61585L55.0276 24.0114C55.0218 28.9643 53.1214 33.7275 49.716 37.324C46.3106 40.9206 41.6584 43.0782 36.7131 43.3543L36.7131 38.6588C40.4116 38.3875 43.8709 36.728 46.3971 34.013C48.9233 31.298 50.3297 27.7283 50.3342 24.0198L50.3342 22.9618L34.6944 22.9512ZM16.4497 25.0694C16.1807 28.2056 14.7458 31.127 12.4282 33.2569C10.1106 35.3869 7.07871 36.5706 3.93103 36.5744L2.87299 36.5744L2.87299 45.5L3.93103 45.5C9.62827 45.4938 15.0904 43.2279 19.119 39.1993C23.1475 35.1708 25.4135 29.7086 25.4197 24.0114L25.4197 0.501901L0.856388 0.501899L0.856386 25.0694L16.4497 25.0694ZM2.97245 2.61585L23.3078 2.61585L23.3078 24.0114C23.302 28.964 21.4019 33.7268 17.997 37.3233C14.5921 40.9199 9.94031 43.0777 4.99541 43.3543L4.99541 38.6588C8.69396 38.3875 12.1532 36.728 14.6794 34.013C17.2057 31.298 18.612 27.7283 18.6165 24.0198L18.6165 22.9618L2.97245 22.9618L2.97245 2.61585Z" fill="#F3A13D"/>
</svg>
