<svg width="20" height="20" viewBox="0 0 20 20" fill="none" xmlns="http://www.w3.org/2000/svg">
<path d="M19.759 5.7279L14.1823 0.151142C14.1344 0.103226 14.0775 0.0652149 14.0149 0.0392815C13.9524 0.013348 13.8853 0 13.8175 0C13.7498 0 13.6827 0.013348 13.6201 0.0392815C13.5575 0.0652149 13.5007 0.103226 13.4528 0.151142L13.4291 0.174771C13.2605 0.342477 13.1268 0.54197 13.0357 0.761703C12.9447 0.981436 12.8981 1.21704 12.8988 1.45489C12.8988 1.76641 12.9779 2.06533 13.1249 2.33042L7.28981 7.33831C6.84323 6.93919 6.27323 6.72075 5.66949 6.72075C5.34954 6.71986 5.03259 6.78244 4.737 6.90489C4.44141 7.02733 4.17304 7.20719 3.94743 7.43407L3.91245 7.46905C3.86454 7.51694 3.82653 7.5738 3.80059 7.63639C3.77466 7.69898 3.76131 7.76606 3.76131 7.83381C3.76131 7.90155 3.77466 7.96864 3.80059 8.03122C3.82653 8.09381 3.86454 8.15067 3.91245 8.19857L7.25339 11.5395L3.99954 14.7932C3.93443 14.8602 2.39429 16.4473 1.38173 17.7103C0.417461 18.9127 0.226775 19.133 0.216869 19.1444C0.130617 19.2427 0.0849536 19.3701 0.0891304 19.5008C0.0933071 19.6315 0.147012 19.7557 0.239363 19.8483C0.287263 19.8965 0.34423 19.9347 0.406977 19.9607C0.469724 19.9868 0.537009 20.0002 0.604949 20.0001C0.725986 20.0001 0.847332 19.9578 0.944945 19.8724C0.953509 19.865 1.16875 19.6779 2.37901 18.7076C3.6418 17.695 5.22889 16.1548 5.30102 16.0845L8.5496 12.8359L11.7116 15.9979C11.8123 16.0987 11.9444 16.1491 12.0764 16.1491C12.2083 16.1491 12.3405 16.0987 12.4411 15.9979L12.4761 15.963C12.703 15.7373 12.8828 15.469 13.0053 15.1734C13.1277 14.8778 13.1903 14.5608 13.1894 14.2409C13.191 13.643 12.971 13.0657 12.5719 12.6206L17.5798 6.78544C17.8476 6.93415 18.1489 7.01201 18.4553 7.01163C18.9389 7.01163 19.3936 6.82331 19.7354 6.48125L19.759 6.45762C19.807 6.40971 19.845 6.35283 19.8709 6.29023C19.8968 6.22762 19.9102 6.16052 19.9102 6.09276C19.9102 6.025 19.8968 5.9579 19.8709 5.89529C19.845 5.83269 19.807 5.77581 19.759 5.7279Z" fill="#F3A13D"/>
</svg>
