<svg width="50" height="60" viewBox="0 0 50 60" fill="none" xmlns="http://www.w3.org/2000/svg">
<path d="M13.4764 12.0251C13.2273 12.0251 12.9883 12.124 12.8121 12.3002C12.6359 12.4764 12.537 12.7154 12.537 12.9646C12.537 14.1042 11.6098 15.0314 10.4701 15.0314C9.33047 15.0314 8.40328 14.1042 8.40328 12.9646C8.40328 11.8249 9.33047 10.8977 10.4701 10.8977C10.7193 10.8977 10.9583 10.7987 11.1344 10.6226C11.3106 10.4464 11.4096 10.2074 11.4096 9.95823C11.4096 9.70906 11.3106 9.4701 11.1344 9.29391C10.9583 9.11772 10.7193 9.01874 10.4701 9.01874C8.29441 9.01874 6.52441 10.7889 6.52441 12.9644C6.52441 15.14 8.29453 16.9101 10.4701 16.9101C12.6457 16.9101 14.4158 15.14 14.4158 12.9644C14.4158 12.7153 14.3169 12.4764 14.1407 12.3002C13.9645 12.124 13.7256 12.0251 13.4764 12.0251ZM13.4764 23.048C13.2273 23.048 12.9883 23.1469 12.8121 23.3231C12.6359 23.4993 12.537 23.7383 12.537 23.9874C12.537 25.1271 11.6098 26.0543 10.4701 26.0543C9.33047 26.0543 8.40328 25.1271 8.40328 23.9874C8.40328 22.8478 9.33047 21.9206 10.4701 21.9206C10.7193 21.9206 10.9583 21.8216 11.1344 21.6454C11.3106 21.4693 11.4096 21.2303 11.4096 20.9811C11.4096 20.732 11.3106 20.493 11.1344 20.3168C10.9583 20.1406 10.7193 20.0416 10.4701 20.0416C8.29441 20.0416 6.52441 21.8117 6.52441 23.9873C6.52441 26.1629 8.29453 27.933 10.4701 27.933C12.6457 27.933 14.4158 26.1629 14.4158 23.9873C14.4158 23.7382 14.3169 23.4993 14.1407 23.3231C13.9645 23.1469 13.7256 23.048 13.4764 23.048ZM24.4993 25.0522H17.4847C17.2356 25.0522 16.9966 25.1512 16.8204 25.3274C16.6442 25.5036 16.5452 25.7425 16.5452 25.9917C16.5452 26.2409 16.6442 26.4798 16.8204 26.656C16.9966 26.8322 17.2356 26.9312 17.4847 26.9312H24.4993C24.7485 26.9312 24.9875 26.8322 25.1637 26.656C25.3398 26.4798 25.4388 26.2409 25.4388 25.9917C25.4388 25.7425 25.3398 25.5036 25.1637 25.3274C24.9875 25.1512 24.7485 25.0522 24.4993 25.0522ZM24.4993 21.0438H17.4847C17.2356 21.0438 16.9966 21.1428 16.8204 21.319C16.6442 21.4952 16.5452 21.7341 16.5452 21.9833C16.5452 22.2325 16.6442 22.4714 16.8204 22.6476C16.9966 22.8238 17.2356 22.9228 17.4847 22.9228H24.4993C24.7485 22.9228 24.9875 22.8238 25.1637 22.6476C25.3398 22.4714 25.4388 22.2325 25.4388 21.9833C25.4388 21.7341 25.3398 21.4952 25.1637 21.319C24.9875 21.1428 24.7485 21.0438 24.4993 21.0438ZM22.4952 36.0751H17.4847C17.2356 36.0751 16.9966 36.1741 16.8204 36.3503C16.6442 36.5265 16.5452 36.7654 16.5452 37.0146C16.5452 37.2638 16.6442 37.5027 16.8204 37.6789C16.9966 37.8551 17.2356 37.9541 17.4847 37.9541H22.4952C22.7444 37.9541 22.9833 37.8551 23.1595 37.6789C23.3357 37.5027 23.4347 37.2638 23.4347 37.0146C23.4347 36.7654 23.3357 36.5265 23.1595 36.3503C22.9833 36.1741 22.7444 36.0751 22.4952 36.0751ZM24.4993 32.0668H17.4847C17.2356 32.0668 16.9966 32.1658 16.8204 32.342C16.6442 32.5182 16.5452 32.7571 16.5452 33.0063C16.5452 33.2555 16.6442 33.4944 16.8204 33.6706C16.9966 33.8468 17.2356 33.9458 17.4847 33.9458H24.4993C24.7485 33.9458 24.9875 33.8468 25.1637 33.6706C25.3398 33.4944 25.4388 33.2555 25.4388 33.0063C25.4388 32.7571 25.3398 32.5182 25.1637 32.342C24.9875 32.1658 24.7485 32.0668 24.4993 32.0668ZM33.5182 14.0292H17.4847C17.2356 14.0292 16.9966 14.1282 16.8204 14.3044C16.6442 14.4806 16.5452 14.7195 16.5452 14.9687C16.5452 15.2179 16.6442 15.4568 16.8204 15.633C16.9966 15.8092 17.2356 15.9082 17.4847 15.9082H33.5181C33.7673 15.9082 34.0062 15.8092 34.1824 15.6331C34.3586 15.4569 34.4576 15.2179 34.4576 14.9688C34.4577 14.7196 34.3587 14.4806 34.1825 14.3044C34.0063 14.1282 33.7674 14.0292 33.5182 14.0292ZM29.5098 10.0208H17.4847C17.2356 10.0208 16.9966 10.1198 16.8204 10.296C16.6442 10.4722 16.5452 10.7111 16.5452 10.9603C16.5452 11.2095 16.6442 11.4484 16.8204 11.6246C16.9966 11.8008 17.2356 11.8998 17.4847 11.8998H29.5098C29.759 11.8998 29.9979 11.8008 30.1741 11.6246C30.3503 11.4484 30.4493 11.2095 30.4493 10.9603C30.4493 10.7111 30.3503 10.4722 30.1741 10.296C29.9979 10.1198 29.759 10.0208 29.5098 10.0208ZM13.4764 34.071C13.2273 34.071 12.9883 34.1699 12.8121 34.3461C12.6359 34.5223 12.537 34.7613 12.537 35.0105C12.537 36.1501 11.6098 37.0773 10.4701 37.0773C9.33047 37.0773 8.40328 36.1501 8.40328 35.0105C8.40328 33.8708 9.33047 32.9436 10.4701 32.9436C10.7193 32.9436 10.9583 32.8446 11.1344 32.6685C11.3106 32.4923 11.4096 32.2533 11.4096 32.0041C11.4096 31.755 11.3106 31.516 11.1344 31.3398C10.9583 31.1636 10.7193 31.0646 10.4701 31.0646C8.29441 31.0646 6.52441 32.8348 6.52441 35.0103C6.52441 37.1859 8.29453 38.956 10.4701 38.956C12.6457 38.956 14.4158 37.1859 14.4158 35.0103C14.4158 34.7612 14.3169 34.5223 14.1407 34.3461C13.9645 34.1699 13.7256 34.071 13.4764 34.071Z" fill="#F3A13D"/>
<path d="M37.5263 0H3.45535C1.83231 0 0.511719 1.32047 0.511719 2.94363V45.0313C0.511719 46.6545 1.83219 47.9749 3.45535 47.9749H20.4909C20.7401 47.9749 20.979 47.8759 21.1552 47.6998C21.3314 47.5236 21.4304 47.2846 21.4304 47.0354C21.4304 46.7863 21.3314 46.5473 21.1552 46.3711C20.979 46.1949 20.7401 46.0959 20.4909 46.0959H3.45535C2.86824 46.0959 2.39059 45.6183 2.39059 45.0312V2.94363C2.39059 2.35652 2.86824 1.87887 3.45535 1.87887H37.5263C38.1134 1.87887 38.5911 2.35652 38.5911 2.94363V34.0085C38.5911 34.2577 38.6901 34.4967 38.8663 34.6728C39.0425 34.849 39.2814 34.948 39.5306 34.948C39.7798 34.948 40.0187 34.849 40.1949 34.6728C40.3711 34.4967 40.4701 34.2577 40.4701 34.0085V2.94363C40.47 1.32047 39.1495 0 37.5263 0Z" fill="#F3A13D"/>
<path d="M46.3957 38.097C45.5225 38.0099 44.6498 38.2574 43.9591 38.7818C43.4089 37.8586 42.4707 37.2036 41.3852 37.0949C40.5118 37.0079 39.6392 37.2554 38.9486 37.7797C38.3985 36.8565 37.4602 36.2016 36.3747 36.0928C35.7142 36.0269 35.0487 36.1517 34.457 36.4525V24.4886C34.4566 24.0072 34.3555 23.5312 34.1602 23.0913C33.9649 22.6513 33.6797 22.2571 33.3229 21.9339C32.6028 21.2823 31.6324 20.9643 30.6603 21.0615C28.9261 21.2352 27.5676 22.8033 27.5676 24.6315V36.6257L24.806 39.3873C23.3385 40.8549 22.7461 42.937 23.2215 44.9573L25.3181 53.8679C26.1676 57.4786 29.3515 60.0002 33.0607 60.0002H41.5342C45.92 60.0002 49.4883 56.4321 49.4883 52.0461V41.6672C49.4884 39.8387 48.1299 38.2706 46.3957 38.097ZM47.6094 52.0459C47.6094 55.3957 44.8841 58.121 41.5343 58.121H33.0608C30.2278 58.121 27.7959 56.195 27.147 53.4373L25.0504 44.5267C24.7251 43.1445 25.1305 41.7197 26.1345 40.7156L27.5676 39.2825V42.5261C27.5676 42.7752 27.6666 43.0142 27.8428 43.1904C28.019 43.3666 28.258 43.4656 28.5071 43.4656C28.7563 43.4656 28.9953 43.3666 29.1714 43.1904C29.3476 43.0142 29.4466 42.7752 29.4466 42.5261V24.6314C29.4466 23.7566 30.062 23.0097 30.8477 22.9311C31.299 22.8858 31.7306 23.0266 32.0625 23.3271C32.2247 23.4741 32.3544 23.6533 32.4432 23.8534C32.532 24.0534 32.578 24.2698 32.5782 24.4887V41.0231C32.5782 41.2723 32.6772 41.5113 32.8534 41.6875C33.0296 41.8636 33.2685 41.9626 33.5177 41.9626C33.7669 41.9626 34.0058 41.8636 34.182 41.6875C34.3582 41.5113 34.4572 41.2723 34.4572 41.0231V39.52C34.4572 39.0784 34.6451 38.655 34.9729 38.3584C35.3051 38.0579 35.7364 37.917 36.1877 37.9624C36.9733 38.0411 37.5888 38.788 37.5888 39.6628V42.025C37.5888 42.2741 37.6878 42.5131 37.864 42.6893C38.0402 42.8655 38.2791 42.9645 38.5283 42.9645C38.7775 42.9645 39.0164 42.8655 39.1926 42.6893C39.3688 42.5131 39.4678 42.2741 39.4678 42.025V40.5218C39.4678 40.0802 39.6556 39.6568 39.9835 39.3602C40.3156 39.0598 40.7471 38.9189 41.1983 38.9643C41.9839 39.0429 42.5994 39.7899 42.5994 40.6647V43.0269C42.5994 43.2761 42.6984 43.5151 42.8746 43.6912C43.0508 43.8674 43.2897 43.9664 43.5389 43.9664C43.7881 43.9664 44.027 43.8674 44.2032 43.6912C44.3794 43.5151 44.4784 43.2761 44.4784 43.0269V41.5238C44.4784 41.0822 44.6662 40.6588 44.9941 40.3622C45.3262 40.0618 45.7574 39.9207 46.2089 39.9663C46.9945 40.0448 47.61 40.7918 47.61 41.6666V52.0459H47.6094Z" fill="#F3A13D"/>
</svg>
