<svg width="57" height="56" viewBox="0 0 57 56" fill="none" xmlns="http://www.w3.org/2000/svg">
<path d="M43.886 39.3672L55.2564 27.9968C56.9785 26.2746 56.9785 23.4725 55.2563 21.7503C54.6716 21.1645 53.9331 20.756 53.1262 20.5719C53.3971 19.9887 53.5369 19.3532 53.5359 18.7101C53.5359 17.5302 53.0764 16.4211 52.2422 15.5869C51.588 14.9325 50.7643 14.51 49.8703 14.3577C50.3736 12.8242 50.0178 11.0679 48.8006 9.85082C48.1568 9.20612 47.3284 8.77766 46.4302 8.6248C46.5777 8.17736 46.6527 7.70924 46.6525 7.23812C46.6525 6.05828 46.193 4.9491 45.3589 4.11496C44.5246 3.28082 43.4155 2.82133 42.2357 2.82133C41.4865 2.82133 40.7662 3.00719 40.1262 3.35617L40.0131 3.23465C38.5434 1.65519 36.4629 0.749451 34.3056 0.749451H25.1017C24.4545 0.749451 23.9296 1.27433 23.9296 1.92156V3.45859C23.9296 4.07371 24.0337 4.67254 24.2327 5.23562C23.6953 5.01299 23.1192 4.89884 22.5376 4.89976C21.3577 4.89976 20.2485 5.35926 19.4143 6.1934C18.1965 7.41121 17.841 9.16879 18.3455 10.7028C17.4464 10.8553 16.6171 11.284 15.9727 11.9293C15.1386 12.7635 14.6791 13.8727 14.6791 15.0524C14.6791 15.5301 14.7556 15.9958 14.9006 16.4365C14.0076 16.5892 13.1847 17.0116 12.531 17.6653C11.1861 19.0103 10.8916 21.0142 11.6476 22.6477C10.8471 22.8306 10.1118 23.2337 9.51674 23.8287C7.79467 25.5508 7.79467 28.353 9.51674 30.0752L11.8551 32.4134L0.343301 43.925C-0.114434 44.3827 -0.114434 45.1248 0.343301 45.5827C0.572168 45.8114 0.872168 45.9261 1.17205 45.9261C1.47193 45.9261 1.77193 45.8116 2.0008 45.5827L13.6237 33.9598C14.2817 34.3353 15.0284 34.5361 15.8067 34.5361C16.9864 34.5361 18.0956 34.0766 18.9298 33.2424C19.8362 32.3362 20.2648 31.1307 20.2171 29.941C20.2765 29.9434 20.336 29.9452 20.3954 29.9452C21.5262 29.9451 22.6577 29.5145 23.5185 28.6537C24.3527 27.8194 24.8122 26.7102 24.8122 25.5305C24.8122 25.4709 24.8102 25.4116 24.8078 25.3523C24.8665 25.3546 24.9253 25.3565 24.9841 25.3565C26.1151 25.3565 27.2463 24.9259 28.1072 24.065C28.9414 23.2307 29.4009 22.1215 29.4009 20.9418C29.4009 20.8821 29.3989 20.8228 29.3965 20.7635C29.4553 20.7659 29.514 20.7678 29.5728 20.7678C30.7039 20.7678 31.835 20.3372 32.696 19.4762C34.3141 17.8581 34.4115 15.2867 32.9889 13.5534L40.7695 5.77281C41.161 5.38117 41.6813 5.16566 42.235 5.16566C42.7887 5.16566 43.3092 5.38117 43.7007 5.77281C43.8938 5.96481 44.0468 6.1932 44.151 6.44477C44.2552 6.69633 44.3085 6.96607 44.3077 7.23836C44.3077 7.79195 44.0922 8.3125 43.7006 8.7039L42.5534 9.85105L38.3912 14.0133C37.9334 14.4711 37.9334 15.2132 38.3912 15.6711C38.62 15.8998 38.92 16.0144 39.2199 16.0144C39.5198 16.0144 39.8198 15.8999 40.0486 15.6711L44.2109 11.5088C45.0189 10.7007 46.3339 10.7005 47.1421 11.5087C47.9503 12.3169 47.9503 13.6318 47.1421 14.44L45.9949 15.5873L42.9799 18.6023C42.5221 19.06 42.5221 19.8021 42.9799 20.26C43.2087 20.4887 43.5087 20.6034 43.8086 20.6034C44.1085 20.6034 44.4085 20.4889 44.6374 20.26L47.6524 17.245C47.8443 17.0519 48.0727 16.8988 48.3243 16.7946C48.5759 16.6904 48.8456 16.6371 49.1179 16.6378C49.6716 16.6378 50.192 16.8534 50.5836 17.245C50.7766 17.437 50.9297 17.6654 51.0339 17.917C51.1381 18.1685 51.1914 18.4383 51.1906 18.7105C51.1906 19.2641 50.9751 19.7847 50.5835 20.1761L49.0088 21.7507L47.5685 23.1911C47.1107 23.6488 47.1107 24.391 47.5685 24.8488C47.7973 25.0776 48.0973 25.1922 48.3972 25.1922C48.6971 25.1922 48.9971 25.0777 49.226 24.8488L50.6674 23.4074C51.4756 22.6006 52.7897 22.6007 53.5975 23.4085C54.4058 24.2166 54.4058 25.5316 53.5975 26.3398L42.2271 37.7102C39.3719 40.5654 35.5772 42.2184 31.5421 42.3648C31.2454 42.3756 30.9638 42.4986 30.7543 42.709L20.2505 53.2517C19.7936 53.7102 19.7949 54.4524 20.2536 54.9093C20.3622 55.0178 20.4912 55.1039 20.6332 55.1626C20.7751 55.2212 20.9272 55.2513 21.0808 55.2511C21.2351 55.2513 21.3879 55.221 21.5305 55.1618C21.673 55.1026 21.8023 55.0157 21.9111 54.9062L29.6369 47.152C31.5993 48.4109 33.9072 49.0095 36.2539 48.8543L42.3005 54.9011C42.4093 55.0101 42.5384 55.0965 42.6807 55.1554C42.8229 55.2143 42.9753 55.2446 43.1293 55.2444C43.2832 55.2446 43.4357 55.2144 43.5779 55.1555C43.7201 55.0966 43.8493 55.0101 43.958 54.9011C44.4158 54.4434 44.4158 53.7012 43.958 53.2434L37.5291 46.8137C37.4088 46.6935 37.2638 46.6009 37.1042 46.5422C36.9445 46.4836 36.774 46.4604 36.6045 46.4743L36.2329 46.5047C34.5329 46.6454 32.8296 46.2746 31.3419 45.4401L32.0951 44.6841C36.5501 44.4093 40.7211 42.5322 43.886 39.3672ZM17.2723 31.5849C17.0803 31.778 16.8519 31.9311 16.6004 32.0353C16.3488 32.1395 16.0791 32.1928 15.8068 32.192C15.5345 32.1928 15.2647 32.1395 15.0132 32.0353C14.7616 31.9311 14.5332 31.778 14.3412 31.5849L11.1741 28.4179C10.366 27.6098 10.366 26.2948 11.1741 25.4866C11.3661 25.2935 11.5945 25.1404 11.8461 25.0361C12.0977 24.9319 12.3675 24.8786 12.6398 24.8794C13.1934 24.8794 13.7139 25.0949 14.1053 25.4866L17.2724 28.6536C18.0805 29.4617 18.0805 30.7766 17.2723 31.5849ZM21.8613 26.9959C21.053 27.8041 19.7378 27.8041 18.9299 26.9959L15.7628 23.8288L14.1881 22.2541C13.3799 21.4459 13.3799 20.131 14.1881 19.3228C14.3801 19.1298 14.6084 18.9767 14.86 18.8724C15.1116 18.7682 15.3813 18.715 15.6536 18.7157C16.2073 18.7157 16.7278 18.9312 17.1192 19.3228L21.8609 24.0646C22.2526 24.4562 22.4682 24.9767 22.4682 25.5303C22.4682 26.0839 22.2527 26.6044 21.8613 26.9959ZM26.45 22.4071C25.6417 23.2151 24.3267 23.2152 23.5187 22.4071L17.6296 16.5181C17.4366 16.3261 17.2835 16.0977 17.1793 15.8461C17.0751 15.5946 17.0218 15.3248 17.0226 15.0525C17.0226 14.4989 17.2381 13.9784 17.6297 13.587C17.8221 13.3944 18.0506 13.2418 18.3021 13.1377C18.5536 13.0337 18.8231 12.9804 19.0953 12.9809C19.6257 12.9809 20.156 13.1827 20.5599 13.5861L23.244 16.2701L26.4497 19.4759H26.4499C26.6429 19.6679 26.7959 19.8963 26.9001 20.1479C27.0043 20.3994 27.0575 20.6692 27.0568 20.9414C27.0576 21.2137 27.0045 21.4835 26.9003 21.7351C26.7961 21.9867 26.6431 22.2151 26.45 22.4071ZM31.0388 17.8183C30.2307 18.6264 28.9157 18.6264 28.1076 17.8183L22.2186 11.9293L22.2166 11.9274L21.0713 10.7821C20.2632 9.97386 20.2632 8.65902 21.0713 7.85078C21.2636 7.65817 21.4921 7.50546 21.7437 7.40142C21.9952 7.29739 22.2648 7.24408 22.537 7.24457C23.0677 7.24457 23.5986 7.4466 24.0025 7.85078L31.0386 14.8868C31.2317 15.0788 31.3848 15.3072 31.489 15.5588C31.5932 15.8103 31.6465 16.0801 31.6457 16.3524C31.6466 16.6247 31.5934 16.8945 31.4892 17.1462C31.385 17.3978 31.2319 17.6262 31.0388 17.8183ZM31.347 11.8802L28.1276 8.66078C28.4965 8.73988 28.8728 8.77982 29.2501 8.77996H29.276L32.4925 8.76484C33.1397 8.7618 33.6622 8.23457 33.6591 7.58722C33.6561 6.94176 33.1319 6.42062 32.4871 6.42062H32.4815L29.2649 6.43574H29.2504C28.4579 6.43574 27.7124 6.12812 27.1504 5.56879C26.5849 5.00582 26.2735 4.25652 26.2735 3.45847V3.09355H34.3053C35.8141 3.09355 37.269 3.72695 38.2969 4.83156L38.3446 4.88277L31.347 11.8802Z" fill="#F3A13D"/>
</svg>
