<svg width="60" height="60" viewBox="0 0 60 60" fill="none" xmlns="http://www.w3.org/2000/svg">
<path d="M58.4681 36.5153C57.916 35.5935 55.6498 32.8567 49.6691 36.3398L39.1261 42.4806C38.5992 42.7874 38.0634 43.0044 37.5042 43.1341C37.7109 42.8017 37.873 42.4257 37.9845 42.0098C38.5236 39.9973 37.3275 37.8961 35.2614 37.2264C35.2212 37.2134 35.1802 37.2031 35.1387 37.1955C32.1084 36.649 29.1178 35.5677 26.7148 34.699C25.8802 34.3972 25.0918 34.1122 24.4214 33.8948C21.7219 33.0191 19.281 34.1031 17.2496 35.2792L9.40769 39.8196L8.55164 38.307C8.22492 37.7297 7.69148 37.3137 7.04941 37.1358C6.40734 36.9577 5.73585 37.0397 5.15859 37.3664L2.20042 39.0405C1.0057 39.7168 0.583823 41.2389 1.26 42.4337L9.95671 57.8002C10.2834 58.3774 10.817 58.7933 11.4591 58.9713C11.6811 59.0328 11.9066 59.0633 12.1307 59.0633C12.5543 59.0633 12.9723 58.9543 13.3499 58.7407L16.308 57.0666C16.8853 56.7398 17.3012 56.2063 17.4792 55.5643C17.6572 54.9223 17.5753 54.2508 17.2486 53.6735L16.4703 52.2984L18.2559 51.2675L31.7585 54.8856C32.5214 55.0901 33.2702 55.1921 34.0029 55.1921C35.4636 55.1921 36.8599 54.7864 38.1742 53.9773L57.3071 42.1961C59.0516 41.1216 59.6052 38.4141 58.4681 36.5153ZM15.6719 55.0634C15.6509 55.1412 15.6146 55.2141 15.5652 55.2779C15.5158 55.3416 15.4542 55.3949 15.384 55.4347L12.4259 57.109C12.3557 57.1487 12.2783 57.174 12.1982 57.1836C12.1182 57.1931 12.037 57.1866 11.9594 57.1645C11.8816 57.1435 11.8087 57.1072 11.745 57.0578C11.6812 57.0084 11.628 56.9469 11.5882 56.8767L2.89148 41.5102C2.85182 41.44 2.82649 41.3626 2.81693 41.2825C2.80738 41.2025 2.8138 41.1213 2.83582 41.0437C2.85684 40.9659 2.89311 40.893 2.94251 40.8293C2.99192 40.7655 3.05348 40.7123 3.12363 40.6725L6.08179 38.9984C6.17283 38.9467 6.27572 38.9196 6.38039 38.9197C6.43628 38.9197 6.49265 38.9273 6.54832 38.9428C6.62615 38.9639 6.69905 39.0001 6.76277 39.0495C6.8265 39.0989 6.87979 39.1605 6.91957 39.2306L14.3843 52.4201L15.6163 54.597C15.6559 54.6672 15.6813 54.7445 15.6908 54.8246C15.7004 54.9046 15.694 54.9858 15.6719 55.0634ZM56.3236 40.5994L37.1906 52.3806C35.6737 53.3143 34.0093 53.5478 32.2433 53.0743L18.3656 49.3559C18.1255 49.2916 17.8696 49.3253 17.6543 49.4495L15.5464 50.6665L10.3311 41.4513L18.189 36.9018C19.9469 35.8839 21.8484 35.0312 23.843 35.6782C24.4837 35.886 25.2223 36.1529 26.0773 36.4621C28.5292 37.3485 31.5763 38.4503 34.7381 39.0284C35.8389 39.413 36.4543 40.4762 36.1734 41.5246C35.8039 42.9035 34.6549 43.0752 33.7407 42.9703C32.1878 42.651 30.712 42.2298 29.1506 41.7839C28.4101 41.5724 27.6444 41.3537 26.8573 41.1428C26.6171 41.0784 26.3612 41.1121 26.1459 41.2364C25.9305 41.3608 25.7734 41.5655 25.7091 41.8057C25.6447 42.0459 25.6784 42.3018 25.8027 42.5171C25.927 42.7324 26.1318 42.8896 26.372 42.9539C27.1443 43.1609 27.9025 43.3773 28.6357 43.5867C30.2449 44.0463 31.7648 44.4804 33.4016 44.815C34.5715 45.0519 35.813 45.2411 37.0071 45.112C38.0906 44.995 39.1276 44.6493 40.0698 44.1007L50.6128 37.96C53.6467 36.193 55.9819 36.013 56.8596 37.4786C57.4644 38.4886 57.1939 40.0635 56.3236 40.5994ZM7.05667 42.172C7.07674 42.3093 7.06957 42.4491 7.03558 42.5836C7.0016 42.718 6.94146 42.8445 6.85861 42.9557C6.77575 43.0669 6.6718 43.1608 6.55269 43.2318C6.43358 43.3029 6.30164 43.3497 6.16441 43.3698C6.02718 43.3899 5.88733 43.3827 5.75287 43.3487C5.61841 43.3147 5.49195 43.2546 5.38073 43.1717C5.26951 43.0889 5.17569 42.9849 5.10464 42.8658C5.03359 42.7467 4.9867 42.6148 4.96664 42.4775C4.92612 42.2004 4.99737 41.9185 5.1647 41.6939C5.33203 41.4692 5.58175 41.3203 5.8589 41.2798C6.13606 41.2393 6.41796 41.3105 6.64258 41.4778C6.86721 41.6452 7.01616 41.8949 7.05667 42.172ZM24.4267 32.9047H48.0641C48.3127 32.9047 48.5512 32.806 48.727 32.6301C48.9028 32.4543 49.0016 32.2159 49.0016 31.9672V21.2311C49.0016 18.5138 46.9168 16.438 43.2819 15.5364C41.7155 15.1478 40.1508 14.8882 38.5925 14.7559C40.882 13.5769 42.5012 10.7291 42.5012 7.40953C42.5014 3.41742 40.1043 0.9375 36.2455 0.9375C32.3868 0.9375 29.9896 3.41742 29.9896 7.40953C29.9896 10.7214 31.6012 13.564 33.8823 14.7479C32.3024 14.8786 30.7365 15.143 29.2014 15.5384C25.5179 16.4852 23.4893 18.507 23.4893 21.2311V31.9672C23.4893 32.0903 23.5135 32.2122 23.5606 32.326C23.6077 32.4397 23.6768 32.5431 23.7638 32.6301C23.8508 32.7172 23.9542 32.7862 24.0679 32.8334C24.1817 32.8805 24.3036 32.9047 24.4267 32.9047ZM31.8645 7.40953C31.8645 3.40969 34.6093 2.8125 36.2455 2.8125C37.8817 2.8125 40.6264 3.40969 40.6264 7.40953C40.6264 10.7469 38.6611 13.462 36.2455 13.462C33.8299 13.462 31.8645 10.7469 31.8645 7.40953ZM25.3642 21.231C25.3642 18.9411 27.7046 17.8589 29.6681 17.3542C33.9539 16.2519 38.3823 16.2526 42.8306 17.3562C44.435 17.7541 47.1267 18.7868 47.1267 21.231V31.0296H43.6311V23.6989C43.6311 23.4503 43.5324 23.2118 43.3565 23.036C43.1807 22.8602 42.9423 22.7614 42.6936 22.7614C42.445 22.7614 42.2065 22.8602 42.0307 23.036C41.8549 23.2118 41.7561 23.4503 41.7561 23.6989V31.0296H30.7348V23.6989C30.7348 23.4503 30.636 23.2118 30.4602 23.036C30.2844 22.8602 30.0459 22.7614 29.7973 22.7614C29.5486 22.7614 29.3102 22.8602 29.1343 23.036C28.9585 23.2118 28.8598 23.4503 28.8598 23.6989V31.0296H25.3643L25.3642 21.231Z" fill="#F3A13D"/>
</svg>
