<svg width="51" height="50" viewBox="0 0 51 50" fill="none" xmlns="http://www.w3.org/2000/svg">
<g clip-path="url(#clip0_2016_1142)">
<path d="M40.3813 11.4108L40.299 11.3631C40.299 11.3631 40.2961 11.3602 40.2942 11.3602L32.6919 6.90225L32.5331 6.80895L28.9946 4.73302L28.8252 4.63389L21.1378 0.126341C20.8517 -0.0427648 20.4976 -0.0427648 20.2115 0.126341L1.05412 11.3602L0.968005 11.4108C0.680946 11.5779 0.504883 11.8889 0.504883 12.2242V34.7931C0.504883 35.1294 0.681903 35.4394 0.968005 35.6075L20.1943 46.8813C20.2201 46.8978 20.2469 46.9124 20.2747 46.926C20.3082 46.9415 20.3416 46.9561 20.377 46.9678C20.3914 46.9726 20.4048 46.9775 20.4191 46.9814C20.4823 47.0008 20.5483 47.0125 20.6163 47.0163C20.6364 47.0173 20.6555 47.0183 20.6746 47.0183C20.6938 47.0183 20.7129 47.0173 20.733 47.0163C20.7359 47.0163 20.7378 47.0163 20.7407 47.0154C20.7588 47.0144 20.777 47.0125 20.7962 47.0095C20.8162 47.0076 20.8354 47.0037 20.8555 46.9998C20.8574 46.9998 20.8593 46.9998 20.8612 46.9989C20.8794 46.995 20.8966 46.9901 20.9148 46.9852C20.9339 46.9804 20.9531 46.9746 20.9722 46.9678C21.0105 46.9541 21.0478 46.9386 21.0842 46.9201C21.1024 46.9114 21.1205 46.9017 21.1378 46.891C21.1454 46.8881 21.1531 46.8832 21.1607 46.8774L26.1632 43.7392C26.2072 43.7129 26.2484 43.6838 26.2866 43.6507C26.2579 43.6012 26.2302 43.5506 26.2024 43.5001C25.9871 43.1065 25.7919 42.6993 25.6188 42.2804C25.5862 42.2017 25.5537 42.122 25.5231 42.0423C25.5183 42.0306 25.5135 42.018 25.5097 42.0063C25.4169 42.0258 25.324 42.0598 25.237 42.1103L21.6009 44.4477V23.5087C21.6009 23.4882 21.5999 23.4688 21.599 23.4494C21.598 23.4299 21.5961 23.4115 21.5932 23.392C21.5932 23.3901 21.5932 23.3881 21.5923 23.3852C21.5904 23.3687 21.5875 23.3512 21.5846 23.3337C21.5798 23.3104 21.575 23.2871 21.5683 23.2637C21.5636 23.2463 21.5588 23.2288 21.553 23.2122C21.5473 23.1928 21.5396 23.1734 21.5329 23.1549C21.5253 23.1374 21.5176 23.1189 21.509 23.1014C21.509 23.1014 21.5087 23.1008 21.5081 23.0995C21.4995 23.081 21.4908 23.0635 21.4803 23.046C21.4746 23.0344 21.4679 23.0237 21.4612 23.013C21.4554 23.0033 21.4487 22.9926 21.442 22.9829C21.4258 22.9576 21.4085 22.9333 21.3885 22.911C21.3798 22.8993 21.3693 22.8876 21.3597 22.8769C21.331 22.8429 21.2985 22.8118 21.2631 22.7836C21.2516 22.7739 21.2401 22.7642 21.2287 22.7555C21.2057 22.738 21.1818 22.7214 21.1569 22.7059C21.1559 22.7049 21.155 22.7049 21.154 22.7039C21.1492 22.701 21.1435 22.6971 21.1378 22.6942L20.6746 22.4231L14.7564 18.9525L32.1474 8.75367L38.0666 12.2252L38.9919 12.7675V24.9966C39.6273 25.0996 40.2454 25.2512 40.8444 25.4475V12.2242C40.8444 11.8889 40.6674 11.5779 40.3813 11.4108ZM20.6746 2.02635L26.5928 5.49692L9.19991 15.6948L3.28266 12.2252L20.6746 2.02635ZM10.1262 18.4092L11.9786 19.4958V23.8391L10.1262 22.7525V18.4092ZM19.7484 24.0519V44.4477L2.35737 34.2508V13.8531L8.27462 17.3237V23.2958C8.27462 23.5155 8.34926 23.7186 8.47365 23.8789C8.48418 23.8916 8.49375 23.9032 8.50331 23.9159C8.51384 23.9275 8.52437 23.9392 8.53489 23.9499C8.54637 23.9616 8.5569 23.9722 8.56838 23.9829C8.58082 23.9936 8.59326 24.0053 8.6057 24.016C8.61909 24.0276 8.63249 24.0383 8.64684 24.049C8.65737 24.0578 8.66885 24.0655 8.68033 24.0733C8.69182 24.0811 8.7033 24.0889 8.71478 24.0957C8.71574 24.0966 8.71765 24.0976 8.71861 24.0986C8.71957 24.0986 8.72052 24.0996 8.72148 24.1005C8.72722 24.1034 8.732 24.1073 8.73775 24.1102L12.4236 26.2717C12.4332 26.2775 12.4427 26.2834 12.4523 26.2882C12.4552 26.2911 12.459 26.2931 12.4628 26.294C12.4839 26.3057 12.5059 26.3174 12.5279 26.3271C12.5547 26.3397 12.5815 26.3504 12.6092 26.3592C12.6274 26.366 12.6456 26.3708 12.6638 26.3757C12.6819 26.3805 12.6992 26.3854 12.7173 26.3883C12.7298 26.3912 12.7422 26.3932 12.7547 26.3951C12.7681 26.398 12.7815 26.4 12.7949 26.401C12.8303 26.4058 12.8666 26.4078 12.903 26.4078H12.9058C12.9288 26.4078 12.9518 26.4068 12.9747 26.4048C12.9929 26.4039 13.0101 26.4019 13.0283 26.399C13.0417 26.398 13.0561 26.3951 13.0695 26.3922C13.0714 26.3922 13.0733 26.3922 13.0743 26.3922C13.0829 26.3912 13.0915 26.3893 13.0991 26.3874C13.1479 26.3767 13.1958 26.3621 13.2427 26.3436C13.2522 26.3407 13.2608 26.3358 13.2704 26.332C13.4503 26.2532 13.6044 26.1172 13.7058 25.9393C13.7163 25.9208 13.7259 25.9024 13.7355 25.8829C13.7536 25.845 13.7689 25.8062 13.7823 25.7673C13.8015 25.71 13.8139 25.6516 13.8216 25.5924C13.8225 25.5826 13.8244 25.5719 13.8254 25.5622C13.8283 25.5311 13.8302 25.5 13.8302 25.4699V20.5823L19.7484 24.0529V24.0519ZM12.9039 17.866L11.0524 16.7804L28.4444 6.5825L30.2959 7.66808L12.9039 17.866Z" fill="white"/>
<path d="M13.783 25.7664C13.7703 25.8062 13.7538 25.8451 13.7354 25.882C13.7538 25.8441 13.7694 25.8052 13.783 25.7664Z" fill="#1A1A1A"/>
<path d="M8.47353 23.8789C8.32235 23.6894 8.25154 23.4455 8.27451 23.2025V23.2958C8.27451 23.5155 8.34914 23.7186 8.47353 23.8789Z" fill="#1A1A1A"/>
<path d="M12.4526 26.2882C12.4526 26.2882 12.4448 26.2844 12.441 26.2824L12.4235 26.2717C12.4332 26.2776 12.4429 26.2834 12.4526 26.2882Z" fill="#1A1A1A"/>
<path d="M20.9722 46.9678C21.0104 46.9552 21.0487 46.9396 21.0841 46.9202C21.0478 46.9386 21.0104 46.9542 20.9722 46.9678Z" fill="#1A1A1A"/>
<path d="M1.05403 11.3602L0.967916 11.4108C0.680856 11.5779 0.504793 11.8889 0.504793 12.2242V12.3127C0.485656 12.1261 0.522017 11.9327 0.620574 11.7568C0.723915 11.5731 0.877971 11.438 1.05403 11.3602Z" fill="#1A1A1A"/>
<path d="M20.6755 24.4494C20.1645 24.4494 19.7493 24.0296 19.7493 23.5096C19.7493 23.1733 19.9253 22.8623 20.2124 22.6942L39.4559 11.4098C39.897 11.1474 40.4644 11.297 40.7228 11.7451C40.9811 12.1931 40.8338 12.7694 40.3927 13.0318C40.3888 13.0338 40.386 13.0357 40.3821 13.0377L21.1386 24.3221C20.998 24.4047 20.8391 24.4484 20.6765 24.4484L20.6755 24.4494Z" fill="#1A1A1A"/>
<path d="M40.8443 25.4475C40.2453 25.2512 39.6271 25.0996 38.9918 24.9966C38.3564 24.8945 37.7048 24.8411 37.0417 24.8411C36.2647 24.8411 35.504 24.914 34.7663 25.0539C30.0374 25.949 26.2454 29.5819 25.0512 34.2673C24.9297 34.7425 24.835 35.2294 24.7689 35.7251C24.7498 35.8718 24.7326 36.0196 24.7182 36.1683C24.678 36.5803 24.657 36.9982 24.657 37.421C24.657 37.5017 24.6579 37.5833 24.6599 37.664C24.6627 37.8282 24.6685 37.9915 24.678 38.1548C24.7058 38.6485 24.7622 39.1354 24.8455 39.6126C24.9048 39.9537 24.9775 40.29 25.0636 40.6214C25.1861 41.0947 25.3354 41.5573 25.5095 42.0063C25.5134 42.018 25.5182 42.0306 25.5229 42.0423C25.5536 42.122 25.5861 42.2017 25.6186 42.2804C25.7918 42.6992 25.987 43.1065 26.2023 43.5001C26.2301 43.5506 26.2578 43.6011 26.2865 43.6507C28.4222 47.441 32.443 50 37.0417 50C37.544 50 38.0406 49.9698 38.5277 49.9096C38.5583 49.9057 38.5889 49.9018 38.6195 49.8979C39.209 49.8211 39.7841 49.7035 40.3448 49.5451C40.716 49.4411 41.0806 49.3197 41.4366 49.1807C43.1493 48.5188 44.6803 47.4818 45.9319 46.1688C48.0954 43.9034 49.4273 40.8177 49.4273 37.421C49.4273 31.8308 45.819 27.0812 40.8443 25.4475ZM44.3837 44.9968C43.136 46.2446 41.581 47.1786 39.8463 47.6684C39.4463 47.7822 39.0367 47.8716 38.6195 47.9357C38.1048 48.0154 37.5775 48.0562 37.0417 48.0562C33.9558 48.0562 31.1771 46.6936 29.2605 44.5293C28.9715 44.2037 28.7026 43.8597 28.4548 43.5001C28.1371 43.0394 27.8548 42.5525 27.6118 42.0423C27.3085 41.4076 27.0664 40.737 26.8922 40.0402C26.8568 39.8983 26.8243 39.7564 26.7946 39.6126C26.6473 38.9051 26.5707 38.1723 26.5707 37.421C26.5707 37.214 26.5765 37.007 26.5889 36.8029C26.609 36.4384 26.6473 36.0788 26.7037 35.7251C26.7822 35.2265 26.896 34.7396 27.0405 34.2673C28.1505 30.6432 31.1216 27.8432 34.8131 27.0278C35.5317 26.8684 36.2771 26.7848 37.0417 26.7848C42.8164 26.7848 47.5136 31.5557 47.5136 37.421C47.5136 40.3833 46.3147 43.0666 44.3837 44.9968Z" fill="#F3A13D"/>
<path d="M42.7302 32.7929L39.6596 37.4706L38.6195 39.0557L36.6159 42.1083L36.1977 42.7449C36.0628 42.951 35.8427 43.0851 35.5997 43.1094H35.5183C35.3011 43.1094 35.0935 43.0219 34.9404 42.8664L31.6746 39.5494C31.3694 39.2277 31.3694 38.7185 31.6746 38.3968C31.8019 38.2636 31.9626 38.182 32.1301 38.1548H32.3865C32.4066 38.1577 32.4267 38.1616 32.4468 38.1664C32.465 38.1703 32.4822 38.1742 32.5004 38.18C32.5415 38.1927 32.5817 38.2082 32.6209 38.2286C32.6286 38.2325 32.6363 38.2364 32.6439 38.2403C32.6525 38.2442 32.6611 38.249 32.6688 38.2549C32.6745 38.2568 32.6803 38.2597 32.6851 38.2636C32.7367 38.2947 32.7846 38.3326 32.8295 38.3764L34.0467 39.6126L35.3911 40.979L38.0492 36.9321L38.8186 35.7601L41.3715 31.8726C41.6222 31.4916 42.1293 31.3886 42.5044 31.6422C42.8795 31.8969 42.9809 32.412 42.7302 32.7929Z" fill="#F3A13D"/>
</g>
<defs>
<clipPath id="clip0_2016_1142">
<rect width="50" height="50" fill="white" transform="translate(0.5)"/>
</clipPath>
</defs>
</svg>
