<svg width="50" height="50" viewBox="0 0 50 50" fill="none" xmlns="http://www.w3.org/2000/svg">
<path d="M46.8467 23.9551H46.1299V20.6654C45.6925 21.1842 45.2121 21.6671 44.6943 22.1085V26.7903H36.7959C36.7519 26.7903 36.7088 26.795 36.6658 26.8025C36.6629 26.8035 36.66 26.8035 36.6562 26.8044C36.638 26.8082 36.6189 26.8129 36.6007 26.8177C36.5969 26.8196 36.593 26.8196 36.5892 26.8215C36.5729 26.8262 36.5567 26.8318 36.5414 26.8375C36.5347 26.8404 36.5289 26.8422 36.5232 26.8441C36.5098 26.8498 36.4964 26.8564 36.4839 26.8621C36.4753 26.8659 36.4667 26.8696 36.4591 26.8744C36.4485 26.8791 36.4399 26.8857 36.4304 26.8914C36.4198 26.8971 36.4083 26.9037 36.3978 26.9103L36.3777 26.9245C36.3662 26.933 36.3538 26.9424 36.3423 26.9519C36.3366 26.9557 36.3318 26.9604 36.327 26.9642C36.3145 26.9755 36.3021 26.9859 36.2906 26.9982C36.283 27.0048 36.2772 27.0124 36.2705 27.019C36.261 27.0294 36.2514 27.0388 36.2428 27.0492C36.2275 27.0681 36.2131 27.087 36.2007 27.1059L32.3725 32.7762C32.3457 32.8159 32.3228 32.8575 32.3055 32.9019C32.2979 32.918 32.2931 32.9341 32.2874 32.9511C32.2854 32.9558 32.2835 32.9605 32.2826 32.9653C32.2768 32.9832 32.2721 33.0002 32.2692 33.0182C32.2673 33.0229 32.2663 33.0276 32.2654 33.0324C32.2625 33.0484 32.2596 33.0635 32.2577 33.0796C32.2577 33.0872 32.2558 33.0938 32.2548 33.1004C32.2539 33.1136 32.2539 33.1269 32.2529 33.1401C32.2529 33.1495 32.252 33.1599 32.252 33.1703C32.252 33.1798 32.2529 33.1892 32.2529 33.1996C32.2539 33.2129 32.2539 33.2261 32.2548 33.2393C32.2548 33.2459 32.2567 33.2526 32.2577 33.2592C32.2606 33.2752 32.2625 33.2913 32.2654 33.3074C32.2663 33.3121 32.2673 33.3168 32.2692 33.3206C32.273 33.3385 32.2768 33.3565 32.2826 33.3745C32.2835 33.3792 32.2854 33.3839 32.2874 33.3896C32.2931 33.4056 32.2988 33.4217 32.3055 33.4387C32.3228 33.4822 32.3457 33.5238 32.3725 33.5635L36.2007 39.2329C36.216 39.2565 36.2332 39.2782 36.2514 39.299C36.2571 39.3056 36.2629 39.3113 36.2696 39.3179C36.3012 39.3519 36.3356 39.3831 36.3739 39.4105C36.3806 39.4153 36.3863 39.4209 36.393 39.4256C36.415 39.4398 36.437 39.4531 36.46 39.4653C36.4658 39.4682 36.4725 39.471 36.4782 39.4739C36.5213 39.4946 36.5662 39.5117 36.6131 39.5239C36.6208 39.5258 36.6285 39.5277 36.6361 39.5296C36.6553 39.5343 36.6754 39.5381 36.6954 39.5409C36.7021 39.5419 36.7098 39.5428 36.7165 39.5438C36.7414 39.5466 36.7663 39.5485 36.7921 39.5485H44.6943V44.511C44.6943 46.2045 43.299 47.5824 41.584 47.5824H4.54686C2.83186 47.5824 1.4365 46.2045 1.4365 44.511C1.4365 44.5072 1.43555 44.5034 1.43555 44.4996V17.5372C2.24902 18.2923 3.34387 18.7573 4.5459 18.7573H25.7709C25.5556 18.3745 25.3604 17.9786 25.1871 17.5713C25.1546 17.4947 25.1221 17.4172 25.0914 17.3397H4.5459C2.8309 17.3397 1.43555 15.9618 1.43555 14.2683C1.43555 12.5747 2.8309 11.1969 4.5459 11.1969H6.49824L5.9001 13.5595H4.54686C4.14969 13.5595 3.82908 13.877 3.82908 14.2683C3.82908 14.6595 4.14969 14.9771 4.54686 14.9771H6.46092H6.46379H24.4139C24.3306 14.5131 24.2741 14.0396 24.2464 13.5595H7.37967L8.89082 7.59053L21.5562 11.1647H21.5581L24.2598 11.9274C24.3153 11.1912 23.7083 13.1667 24.6196 9.77927C25.531 6.39188 24.4139 10.5505 21.871 9.77927C19.3282 9.00806 8.57117 6.02646 8.57117 6.02646C8.57117 6.02646 8.56352 6.02457 8.55969 6.02363C8.55586 6.02268 8.55203 6.02174 8.5482 6.02079C8.54055 6.0189 8.53193 6.01796 8.52428 6.01607C8.51184 6.01323 8.49939 6.0104 8.48695 6.00851C8.47643 6.00662 8.46494 6.00567 8.45441 6.00473C8.44102 6.00284 8.42857 6.00189 8.41518 6.00094C8.40465 6 8.39412 6 8.38359 6H8.3434C8.33383 6.00095 8.32426 6.00189 8.31373 6.00189C8.30033 6.00284 8.28693 6.00473 8.27353 6.00662C8.26396 6.00662 8.25535 6.00945 8.24578 6.01134C8.23238 6.01418 8.21803 6.01607 8.20463 6.01985C8.19602 6.02174 8.1874 6.02457 8.17879 6.02646C8.16539 6.03024 8.15104 6.03497 8.13764 6.03969C8.12998 6.04158 8.12232 6.04536 8.11467 6.0482C8.10031 6.05292 8.08691 6.05859 8.07352 6.06521C8.06586 6.06804 8.05916 6.07182 8.05246 6.0756C8.03906 6.08222 8.02566 6.08884 8.01227 6.0964C8.00557 6.10018 7.99887 6.1049 7.99217 6.10868C7.97973 6.11624 7.96729 6.12475 7.95484 6.13325C7.94814 6.13798 7.9424 6.1427 7.9357 6.14743C7.92422 6.15688 7.91178 6.16633 7.90125 6.17578C7.89455 6.18145 7.88881 6.18712 7.88211 6.19279C7.87158 6.20224 7.86201 6.21264 7.85148 6.22303C7.84574 6.22965 7.84 6.23626 7.8333 6.24288C7.82469 6.25327 7.81512 6.26367 7.8065 6.27407C7.80076 6.28257 7.79502 6.29013 7.78928 6.29864C7.78162 6.30903 7.77396 6.31943 7.76727 6.32982C7.76152 6.33927 7.75578 6.34873 7.75004 6.35912C7.7443 6.36952 7.73855 6.37991 7.73281 6.39031C7.72803 6.40165 7.72324 6.41204 7.7175 6.42338C7.71271 6.43378 7.70889 6.44418 7.7041 6.45552C7.70027 6.46686 7.69645 6.4782 7.69166 6.49048C7.68975 6.49804 7.68687 6.5056 7.684 6.51316C7.684 6.51695 7.684 6.52073 7.68113 6.52451C7.68018 6.52829 7.67922 6.53207 7.67826 6.53585L6.85713 9.77833H4.5459C2.04518 9.77833 0.00861328 11.7847 0.000957031 14.2532C0.000957031 14.2579 0 14.2626 0 14.2673V44.511C0 44.5186 0.000957031 44.5252 0.000957031 44.5327C0.0133984 46.9984 2.04709 49 4.54686 49H41.584C44.0904 49 46.1289 46.987 46.1299 44.5119V39.5485H46.8467C48.0344 39.5485 49 38.5949 49 37.4221V26.0815C49 24.9087 48.0344 23.9551 46.8467 23.9551ZM47.5645 37.4221C47.5645 37.8124 47.2419 38.1309 46.8467 38.1309H37.1816L33.832 33.1694L37.1816 28.2078H46.8467C46.8572 28.2078 46.8668 28.2069 46.8764 28.206C47.1108 28.2031 47.3434 28.1625 47.5645 28.085V37.4221ZM46.8467 26.7893C46.8467 26.7893 46.8371 26.7903 46.8323 26.7903H46.1299V25.3727H46.8467C47.2419 25.3727 47.5645 25.6902 47.5645 26.0815C47.5645 26.4727 47.2419 26.7893 46.8467 26.7893Z" fill="white"/>
<path d="M41.5 28C40.1209 28 39 29.1218 39 30.5C39 31.8782 40.1209 33 41.5 33C42.8791 33 44 31.8791 44 30.5C44 29.1209 42.8782 28 41.5 28ZM41.5 31.6364C40.8736 31.6364 40.3636 31.1273 40.3636 30.5C40.3636 29.8727 40.8736 29.3636 41.5 29.3636C42.1264 29.3636 42.6364 29.8736 42.6364 30.5C42.6364 31.1264 42.1264 31.6364 41.5 31.6364Z" fill="white"/>
<path d="M37.3594 0C31.4834 0 26.5312 4.0293 25.1221 9.47168C24.9355 10.1885 24.8115 10.9307 24.7549 11.6914C24.7314 12.0049 24.7197 12.3213 24.7197 12.6406C24.7197 12.8877 24.7266 13.1338 24.7412 13.3779C24.7695 13.874 24.8271 14.3633 24.9121 14.8428C24.9727 15.1855 25.0469 15.5234 25.1348 15.8564C25.2627 16.3447 25.4199 16.8213 25.6035 17.2842C25.6348 17.3643 25.668 17.4443 25.7012 17.5234C25.8779 17.9443 26.0771 18.3535 26.2969 18.749C28.4541 22.6406 32.6045 25.2803 37.3594 25.2803C37.8721 25.2803 38.3789 25.25 38.876 25.1895C39.5098 25.1133 40.1289 24.9902 40.7305 24.8232C42.5537 24.3184 44.2119 23.415 45.6064 22.2119C46.1348 21.7559 46.625 21.2568 47.0713 20.7207C48.8994 18.5283 50 15.7109 50 12.6406C50 5.66992 44.3291 0 37.3594 0ZM45.0195 20.085C43.0771 22.084 40.3604 23.3271 37.3594 23.3271C33.7363 23.3271 30.5283 21.5146 28.5957 18.749C28.2715 18.2861 27.9834 17.7969 27.7354 17.2842C27.3633 16.5166 27.0811 15.6982 26.9014 14.8428C26.8008 14.3652 26.7324 13.876 26.6982 13.3779C26.6816 13.1348 26.6729 12.8887 26.6729 12.6406C26.6729 12.5068 26.6758 12.373 26.6816 12.2412C26.7158 11.2803 26.8789 10.3516 27.1523 9.47168C28.5059 5.12109 32.5693 1.95312 37.3594 1.95312C43.2529 1.95312 48.0469 6.74707 48.0469 12.6406C48.0469 14.2305 47.6982 15.7412 47.0713 17.0986C46.5605 18.21 45.8633 19.2188 45.0195 20.085Z" fill="#F3A13D"/>
<path d="M43.165 7.9902L42.1777 9.47164L41.2012 10.9365L39.5732 13.3779L38.5967 14.8427L36.9688 17.2841L36.498 17.9902C36.3604 18.1972 36.1357 18.332 35.8877 18.3564H35.8047C35.583 18.3564 35.3711 18.2685 35.2148 18.1123L31.8818 14.7793C31.5703 14.456 31.5703 13.9443 31.8818 13.6211C32.2012 13.29 32.7295 13.2812 33.0605 13.6005L34.3027 14.8427L35.6748 16.2158L36.5908 14.8427L37.5674 13.3779L39.1963 10.9365L40.1729 9.47164L41.7783 7.06539C42.0342 6.68258 42.5518 6.57906 42.9346 6.83395C43.3174 7.08981 43.4209 7.60738 43.165 7.9902Z" fill="#F3A13D"/>
</svg>
