<svg width="51" height="50" viewBox="0 0 51 50" fill="none" xmlns="http://www.w3.org/2000/svg">
<g clip-path="url(#clip0_2016_252)">
<path d="M13.8262 23.3309H24.6528C25.1125 23.3309 25.4854 22.9582 25.4854 22.4988C25.4854 22.0393 25.1125 21.6667 24.6528 21.6667H13.8262C13.3665 21.6667 12.9937 22.0393 12.9937 22.4988C12.9937 22.9582 13.3665 23.3309 13.8262 23.3309ZM13.8262 29.1575C13.8262 29.617 14.199 29.9896 14.6587 29.9896H33.8145C34.2742 29.9896 34.647 29.617 34.647 29.1575C34.647 28.6981 34.2742 28.3254 33.8145 28.3254H14.6587C14.199 28.3254 13.8262 28.6981 13.8262 29.1575ZM35.7245 18.0925C35.8806 18.2485 36.0924 18.3363 36.313 18.3363H36.396C36.6439 18.312 36.8683 18.1773 37.006 17.9705L43.669 7.98146C43.9247 7.59906 43.8213 7.08205 43.4387 6.82647C43.0561 6.57089 42.5388 6.67429 42.2831 7.05669L36.1832 16.1971L33.5695 13.5847C33.2386 13.2657 32.7116 13.2745 32.3915 13.6052C32.0801 13.9281 32.0801 14.4392 32.3915 14.7621L35.7225 18.0915L35.7245 18.0925Z" fill="white"/>
<path d="M43.4387 6.82647C43.0561 6.57089 42.5388 6.67429 42.2831 7.05669L36.1832 16.1971L33.5695 13.5847C33.2386 13.2657 32.7116 13.2745 32.3915 13.6052C32.0801 13.9281 32.0801 14.4392 32.3915 14.7621L35.7225 18.0915C35.8787 18.2476 36.0905 18.3354 36.311 18.3354H36.394C36.6419 18.311 36.8664 18.1764 37.004 17.9696L43.6671 7.98048C43.9228 7.59809 43.8193 7.08107 43.4367 6.82549L43.4387 6.82647Z" fill="#F3A13D"/>
<path d="M11.6497 37.2853L35.8621 36.0162C37.0518 35.9509 38.0747 35.151 38.425 34.0126L41.2359 24.7961C40.6347 24.9629 40.0159 25.0858 39.3825 25.1619L36.8332 33.5238C36.6946 33.9979 36.271 34.3325 35.7772 34.3569L11.8742 35.6055L8.64855 17.5042H26.2154C25.989 16.9667 25.7996 16.4107 25.6493 15.8391H8.35184L7.73307 12.3634C7.66182 11.9664 7.31632 11.6776 6.91323 11.6776H1.3335C0.872828 11.6776 0.5 12.0503 0.5 12.5097C0.5 12.9692 0.872828 13.3418 1.3335 13.3418H6.21443L9.69676 32.879C9.99541 34.5608 10.1818 35.6046 10.336 36.2513L8.41236 39.1768C7.6218 40.4391 8.00537 42.1033 9.26928 42.8935C9.69871 43.1617 10.1945 43.3042 10.7011 43.3032H13.022C12.4666 44.0202 12.1641 44.9001 12.1602 45.8063C12.1426 48.1055 13.9931 49.9824 16.2925 50C18.5919 50.0175 20.4707 48.1689 20.4883 45.8697C20.4951 44.9449 20.1935 44.0446 19.6314 43.309H28.0063C27.4549 44.026 27.1553 44.903 27.1514 45.8063C27.1514 48.1055 29.0155 49.9687 31.3159 49.9687C33.6163 49.9687 35.4795 48.1055 35.4795 45.8063C35.4766 44.903 35.176 44.026 34.6255 43.309H37.1455C37.6052 43.309 37.978 42.9364 37.978 42.4769C37.978 42.0175 37.6052 41.6448 37.1455 41.6448L10.6972 41.639C10.1272 41.639 9.66358 41.1766 9.66358 40.6059C9.66358 40.4186 9.71433 40.2352 9.81095 40.0753L11.6497 37.2853ZM31.3159 43.309C32.695 43.309 33.8145 44.4279 33.8145 45.8063C33.8145 47.1847 32.695 48.3036 31.3159 48.3036C29.9369 48.3036 28.8174 47.1856 28.8174 45.8063C28.8174 44.4269 29.9359 43.309 31.3159 43.309ZM16.3247 43.309C17.7038 43.309 18.8232 44.4279 18.8232 45.8063C18.8232 47.1847 17.7038 48.3036 16.3247 48.3036C14.9456 48.3036 13.8262 47.1856 13.8262 45.8063C13.8262 44.4269 14.9447 43.309 16.3247 43.309Z" fill="white"/>
<path d="M37.8667 0C30.9011 0 25.2345 5.66373 25.2345 12.6268C25.2345 13.736 25.378 14.8129 25.6493 15.8391C25.7996 16.4108 25.9889 16.9668 26.2154 17.5043C28.1283 22.0521 32.6306 25.2527 37.8667 25.2527C38.3791 25.2527 38.8857 25.2224 39.3825 25.1619C40.0159 25.0858 40.6347 24.9629 41.2359 24.7961C46.5716 23.3192 50.5 18.4232 50.5 12.6268C50.5 5.66373 44.8324 0 37.8667 0ZM37.8667 23.3017C31.9776 23.3017 27.1865 18.513 27.1865 12.6268C27.1865 6.74067 31.9776 1.95099 37.8667 1.95099C43.7559 1.95099 48.548 6.7397 48.548 12.6268C48.548 18.5139 43.7568 23.3017 37.8667 23.3017Z" fill="#F3A13D"/>
</g>
<defs>
<clipPath id="clip0_2016_252">
<rect width="50" height="50" fill="white" transform="translate(0.5)"/>
</clipPath>
</defs>
</svg>
