<svg width="22.000000" height="17.618652" viewBox="0 0 22 17.6187" fill="none" xmlns="http://www.w3.org/2000/svg" xmlns:xlink="http://www.w3.org/1999/xlink">
	<desc>
			Created with Pixso.
	</desc>
	<defs/>
	<path id="svg" d="M0.68 3.55L11.88 3.55C12.18 4.79 13.31 5.72 14.66 5.72C16 5.72 17.13 4.79 17.43 3.55L21.31 3.55C21.69 3.55 22 3.24 22 2.86C22 2.48 21.69 2.17 21.31 2.17L17.43 2.17C17.13 0.92 16 0 14.66 0C13.31 0 12.18 0.92 11.88 2.17L0.68 2.17C0.3 2.17 0 2.48 0 2.86C0 3.24 0.3 3.55 0.68 3.55ZM14.66 1.37C15.48 1.37 16.14 2.04 16.14 2.86C16.14 3.68 15.48 4.35 14.66 4.35C13.83 4.35 13.17 3.68 13.17 2.86C13.17 2.04 13.83 1.37 14.66 1.37ZM0.68 9.49L4.56 9.49C4.86 10.74 5.99 11.67 7.33 11.67C8.68 11.67 9.81 10.74 10.11 9.49L21.31 9.49C21.69 9.49 22 9.18 22 8.8C22 8.42 21.69 8.12 21.31 8.12L10.11 8.12C9.81 6.87 8.68 5.94 7.33 5.94C5.99 5.94 4.86 6.87 4.56 8.12L0.68 8.12C0.3 8.12 0 8.42 0 8.8C0 9.18 0.3 9.49 0.68 9.49ZM7.33 7.32C8.16 7.32 8.82 7.98 8.82 8.8C8.82 9.62 8.16 10.29 7.33 10.29C6.51 10.29 5.85 9.62 5.85 8.8C5.85 7.98 6.51 7.32 7.33 7.32ZM21.31 14.06L17.43 14.06C17.13 12.82 16 11.89 14.66 11.89C13.31 11.89 12.18 12.82 11.88 14.06L0.68 14.06C0.3 14.06 0 14.37 0 14.75C0 15.13 0.3 15.44 0.68 15.44L11.88 15.44C12.18 16.69 13.31 17.61 14.66 17.61C16 17.61 17.13 16.69 17.43 15.44L21.31 15.44C21.69 15.44 22 15.13 22 14.75C22 14.37 21.69 14.06 21.31 14.06ZM14.66 16.24C13.83 16.24 13.17 15.57 13.17 14.75C13.17 13.93 13.83 13.26 14.66 13.26C15.48 13.26 16.14 13.93 16.14 14.75C16.14 15.57 15.48 16.24 14.66 16.24Z" fill="#3E3E3E" fill-opacity="1.000000" fill-rule="nonzero"/>
</svg>
