<svg width="16" height="16" viewBox="0 0 16 16" fill="none" xmlns="http://www.w3.org/2000/svg">
<g clip-path="url(#clip0_122_832)">
<path d="M8.00007 5.06561C6.38087 5.06561 5.06567 6.38081 5.06567 8.00001C5.06567 9.61921 6.38087 10.9376 8.00007 10.9376C9.61927 10.9376 10.9377 9.61921 10.9377 8.00001C10.9377 6.38081 9.61927 5.06561 8.00007 5.06561Z" fill="white"/>
<path d="M12.4288 0H3.5712C1.6032 0 0 1.6032 0 3.5712V12.4288C0 14.4 1.6032 16 3.5712 16H12.4288C14.4 16 16 14.4 16 12.4288V3.5712C16 1.6032 14.4 0 12.4288 0ZM8 13.184C5.1424 13.184 2.816 10.8576 2.816 8C2.816 5.1424 5.1424 2.8192 8 2.8192C10.8576 2.8192 13.184 5.1424 13.184 8C13.184 10.8576 10.8576 13.184 8 13.184ZM13.2928 3.76C12.688 3.76 12.1952 3.2704 12.1952 2.6656C12.1952 2.0608 12.688 1.568 13.2928 1.568C13.8976 1.568 14.3904 2.0608 14.3904 2.6656C14.3904 3.2704 13.8976 3.76 13.2928 3.76Z" fill="white"/>
</g>
<defs>
<clipPath id="clip0_122_832">
<rect width="16" height="16" fill="white"/>
</clipPath>
</defs>
</svg>
