<svg width="16" height="2" viewBox="0 0 16 2" fill="none" xmlns="http://www.w3.org/2000/svg">
<path d="M0.959735 1.96008H15.0397C15.1658 1.96008 15.2906 1.93524 15.4071 1.88698C15.5236 1.83873 15.6295 1.768 15.7186 1.67883C15.8078 1.58966 15.8785 1.48381 15.9267 1.36731C15.975 1.25081 15.9998 1.12595 15.9998 0.999857C15.9998 0.873771 15.975 0.748917 15.9267 0.632425C15.8785 0.515933 15.8078 0.410087 15.7186 0.32093C15.6295 0.231774 15.5236 0.161055 15.4071 0.112812C15.2906 0.0645692 15.1658 0.0397472 15.0397 0.0397644H0.959735C0.70703 0.0427202 0.465679 0.145181 0.288026 0.324924C0.110373 0.504667 0.0107422 0.7472 0.0107422 0.999922C0.0107422 1.25264 0.110373 1.49518 0.288026 1.67492C0.465679 1.85466 0.70703 1.95712 0.959735 1.96008Z" fill="#8E8E8E"/>
</svg>
