<svg width="30" height="30" viewBox="0 0 30 30" fill="none" xmlns="http://www.w3.org/2000/svg">
<g clip-path="url(#clip0_378_1711)">
<path d="M16.254 7.15016C17.9128 7.42848 19.4199 8.21364 20.6228 9.41715C21.8257 10.6201 22.6044 12.1271 22.8898 13.7859C22.9595 14.2037 23.3205 14.4949 23.7318 14.4949C23.7822 14.4949 23.8267 14.4884 23.8777 14.482C24.3464 14.4058 24.6564 13.9629 24.5802 13.4941C24.238 11.4867 23.2888 9.6568 21.8386 8.20719C20.3884 6.757 18.5585 5.80719 16.5517 5.46559C16.083 5.38942 15.6464 5.69996 15.5638 6.16227C15.4812 6.62457 15.7853 7.07399 16.254 7.15016Z" fill="#F3A13D"/>
<path d="M30.0064 13.2474C29.4427 9.94217 27.8853 6.93455 25.4918 4.54158C23.0982 2.14861 20.0906 0.590605 16.7859 0.0269336C16.3236 -0.0550977 15.8871 0.261309 15.8045 0.723613C15.7283 1.19236 16.0388 1.62889 16.507 1.7115C19.4578 2.21189 22.1484 3.61111 24.2888 5.74451C26.4287 7.88436 27.822 10.5756 28.3218 13.5263C28.3916 13.9441 28.7525 14.2353 29.1638 14.2353C29.2142 14.2353 29.2587 14.2289 29.3097 14.2224C29.772 14.1527 30.0884 13.7097 30.0064 13.2474Z" fill="#F3A13D"/>
<path d="M23.7503 18.5976C23.1363 17.9584 22.395 17.6162 21.6105 17.6162C20.8318 17.6162 20.0847 17.9519 19.4448 18.5912L17.4439 20.5857C17.2792 20.4972 17.1146 20.4146 16.9564 20.3326C16.7284 20.2183 16.5134 20.1111 16.3294 19.9969C14.455 18.8062 12.7523 17.2552 11.1187 15.2478C10.3271 14.2476 9.79563 13.4051 9.40891 12.5508C9.92805 12.0761 10.4091 11.5822 10.8779 11.107C11.0554 10.9295 11.2323 10.7461 11.4099 10.5685C12.7394 9.23904 12.7394 7.51638 11.4099 6.18689L9.68137 4.45837C9.48508 4.26208 9.28235 4.05935 9.0925 3.85662C8.71281 3.46404 8.31379 3.05857 7.90188 2.67888C7.28782 2.07126 6.55305 1.74841 5.78078 1.74841C5.00852 1.74841 4.26145 2.07126 3.62805 2.67888L3.61516 2.69177L1.46301 4.86443C0.652658 5.67478 0.190354 6.66267 0.0889864 7.80876C-0.0627714 9.6574 0.481565 11.3801 0.899338 12.5068C1.92531 15.2736 3.45754 17.8383 5.74328 20.5863C8.51653 23.898 11.8534 26.5131 15.665 28.3552C17.121 29.0455 19.0652 29.8623 21.2366 30.0017C21.3697 30.0082 21.5091 30.0146 21.6357 30.0146C23.0982 30.0146 24.3269 29.489 25.289 28.4443C25.2954 28.4314 25.3077 28.4256 25.3142 28.4127C25.6435 28.0136 26.0232 27.6527 26.4222 27.2666C26.6947 27.007 26.973 26.7345 27.2454 26.4498C27.8724 25.7976 28.2017 25.0377 28.2017 24.259C28.2017 23.4738 27.8659 22.7203 27.2267 22.0875L23.7503 18.5976ZM26.0173 25.265C25.7706 25.531 25.5169 25.7713 25.245 26.0373C24.8337 26.4299 24.4154 26.8412 24.0228 27.3035C23.3835 27.9873 22.63 28.3101 21.6421 28.3101C21.5472 28.3101 21.4458 28.3101 21.3509 28.3037C19.4706 28.1836 17.7228 27.4488 16.412 26.8219C12.8284 25.0869 9.68137 22.6242 7.06633 19.5023C4.90715 16.9002 3.4634 14.4937 2.50774 11.9103C1.91887 10.3336 1.70383 9.10544 1.79875 7.94646C1.86203 7.20583 2.1468 6.59119 2.67238 6.06619L4.83156 3.90818C5.14211 3.61697 5.47082 3.45876 5.79426 3.45876C6.19328 3.45876 6.51613 3.69958 6.71887 3.90173L6.73762 3.92048C7.12375 4.28142 7.49114 4.65525 7.87727 5.05369C8.07356 5.25642 8.27629 5.45916 8.47903 5.66775L10.2075 7.39626C10.8784 8.06716 10.8784 8.68767 10.2075 9.35916C10.0241 9.54255 9.8466 9.72654 9.66321 9.90349C9.13117 10.4478 8.62492 10.9547 8.07414 11.4486C8.06125 11.4615 8.04895 11.4674 8.0425 11.4802C7.49817 12.0246 7.59953 12.5566 7.71321 12.9176L7.73196 12.9744C8.18137 14.0636 8.81477 15.089 9.77688 16.3113L9.78332 16.3177C11.5306 18.4705 13.3734 20.1486 15.406 21.4336C15.6655 21.5982 15.9316 21.7312 16.1847 21.8578C16.4126 21.972 16.6277 22.0793 16.8116 22.1935C16.8368 22.2064 16.862 22.2252 16.8878 22.2381C17.1029 22.3459 17.3056 22.3963 17.5148 22.3963C18.0404 22.3963 18.3697 22.067 18.4775 21.9592L20.6431 19.7935C20.8581 19.5785 21.2003 19.3189 21.5993 19.3189C21.9919 19.3189 22.3148 19.5656 22.5111 19.7812L26.0126 23.2828C26.663 23.9291 26.663 24.5941 26.0173 25.265Z" fill="white"/>
</g>
<defs>
<clipPath id="clip0_378_1711">
<rect width="30" height="30" fill="white"/>
</clipPath>
</defs>
</svg>
