<svg width="19.999512" height="20.000000" viewBox="0 0 19.9995 20" fill="none" xmlns="http://www.w3.org/2000/svg" xmlns:xlink="http://www.w3.org/1999/xlink">
	<desc>
			Created with Pixso.
	</desc>
	<defs/>
	<path id="Vector" d="M19.81 18.91L14.64 13.83C15.99 12.36 16.82 10.41 16.82 8.28C16.82 3.7 13.06 0 8.41 0C3.76 0 0 3.7 0 8.28C0 12.85 3.76 16.56 8.41 16.56C10.42 16.56 12.26 15.86 13.71 14.71L18.89 19.81C19.14 20.06 19.55 20.06 19.8 19.81C19.86 19.75 19.91 19.68 19.95 19.6C19.98 19.52 19.99 19.44 19.99 19.36C19.99 19.27 19.98 19.19 19.95 19.11C19.91 19.04 19.87 18.97 19.81 18.91ZM8.41 15.28C4.48 15.28 1.29 12.15 1.29 8.28C1.29 4.41 4.48 1.27 8.41 1.27C12.34 1.27 15.53 4.41 15.53 8.28C15.53 12.15 12.34 15.28 8.41 15.28Z" fill="#FFFFFF" fill-opacity="1.000000" fill-rule="nonzero"/>
</svg>
