<svg width="15" height="16" viewBox="0 0 15 16" fill="none" xmlns="http://www.w3.org/2000/svg">
<path d="M14.0497 4.00615C13.1352 4.00615 12.2914 3.70318 11.6138 3.19208C10.8366 2.60618 10.2783 1.74673 10.0811 0.756136C10.0316 0.507061 10.0057 0.253897 10.0035 -3.05176e-05H7.39101V7.13848L7.38788 11.0486C7.38788 12.0939 6.70714 12.9803 5.7635 13.292C5.48084 13.3855 5.18314 13.425 4.88589 13.4085C4.49278 13.3869 4.1244 13.2683 3.80422 13.0767C3.12286 12.6692 2.6609 11.9299 2.64838 11.0843C2.62866 9.76253 3.69718 8.68493 5.01797 8.68493C5.27869 8.68493 5.52907 8.7275 5.7635 8.8048V6.15228C5.51624 6.11566 5.2646 6.09656 5.01015 6.09656C3.56448 6.09656 2.21239 6.69749 1.2459 7.7801C0.515398 8.59824 0.0772221 9.64203 0.00961778 10.7365C-0.0789564 12.1744 0.447168 13.5412 1.46749 14.5496C1.61741 14.6976 1.77484 14.835 1.93947 14.9618C2.81426 15.635 3.88372 16 5.01015 16C5.2646 16 5.51624 15.9812 5.7635 15.9446C6.81574 15.7887 7.78662 15.307 8.5528 14.5496C9.49425 13.6191 10.0144 12.3838 10.0201 11.0689L10.0066 5.22991C10.4568 5.57716 10.95 5.86477 11.4739 6.08561C12.2936 6.43146 13.1627 6.60673 14.0572 6.60641V4.00553C14.0579 4.00615 14.0503 4.00615 14.0497 4.00615Z" fill="#1A1A1A"/>
</svg>
