<svg width="39" height="50" viewBox="0 0 39 50" fill="none" xmlns="http://www.w3.org/2000/svg">
<path fill-rule="evenodd" clip-rule="evenodd" d="M19.5261 50C19.3454 50.0001 19.1703 49.9373 19.0309 49.8223L7.94268 40.6915C5.74607 38.8825 3.95257 36.5617 2.7565 33.9795C1.56043 31.3974 0.94961 28.5286 0.990178 25.6833L1.23345 8.64402C1.23603 8.46352 1.30122 8.28951 1.41789 8.15176C1.53456 8.014 1.69545 7.92105 1.87307 7.88878L4.71984 7.37195C8.67533 6.65363 11.7427 5.318 13.6193 4.32396C15.5309 3.31139 16.6343 2.43255 16.7489 2.33993L19.0421 0.341964C19.1852 0.217363 19.3688 0.149244 19.5585 0.15039C19.7482 0.151535 19.9309 0.221866 20.0724 0.348184L22.308 2.34371C22.4415 2.45122 23.5471 3.32477 25.4325 4.32342C27.3092 5.31733 30.3766 6.65295 34.3321 7.37114L37.1789 7.88811C37.3565 7.92037 37.5174 8.01332 37.6341 8.15108C37.7507 8.28884 37.8159 8.46284 37.8185 8.64334L38.0618 25.6833C38.1024 28.5287 37.4917 31.3974 36.2955 33.9795C35.0993 36.5617 33.3059 38.8827 31.1092 40.6915L20.0209 49.8223C19.8817 49.9373 19.7067 50.0002 19.5261 50ZM2.78192 9.30703L2.54785 25.7056C2.51052 28.3188 3.07144 30.9534 4.17001 33.3249C5.26859 35.6962 6.91564 37.8278 8.93307 39.4892L19.5263 48.2122L30.1194 39.489C32.1369 37.8278 33.7839 35.6962 34.8825 33.3248C35.9811 30.9534 36.542 28.3187 36.5047 25.7055L36.2706 9.30622L34.0544 8.90379C29.9025 8.1499 26.6779 6.74545 24.7039 5.69988C22.6331 4.6032 21.44 3.64567 21.3108 3.54005C21.3021 3.53285 21.2934 3.5255 21.2849 3.51801L19.5479 1.96765L17.7624 3.52288C17.7564 3.52805 17.7504 3.53314 17.7443 3.53816C17.6157 3.6435 16.4273 4.59928 14.3486 5.70042C12.3746 6.74599 9.15011 8.15071 4.99827 8.9046L2.78192 9.30703Z" fill="white"/>
<path fill-rule="evenodd" clip-rule="evenodd" d="M19.525 45.3781C19.3443 45.3782 19.1692 45.3154 19.0298 45.2004L10.1771 37.9106C8.3851 36.4348 6.92209 34.5415 5.9463 32.4351C4.97051 30.3287 4.4722 27.9885 4.50547 25.6673L4.7075 11.5212C4.71008 11.3407 4.77527 11.1667 4.89194 11.029C5.0086 10.8912 5.1695 10.7983 5.34711 10.766C9.83364 9.9514 13.3102 8.41713 15.4366 7.27366C17.7458 6.03175 19.0078 4.9686 19.0202 4.95805C19.1613 4.83825 19.3403 4.77253 19.5254 4.77263C19.7104 4.77273 19.8894 4.83864 20.0303 4.95859C20.0421 4.9686 21.3042 6.03161 23.6133 7.27339C25.7397 8.41672 29.2162 9.95073 33.7028 10.7655C33.8804 10.7977 34.0413 10.8907 34.1579 11.0284C34.2746 11.1662 34.3398 11.3402 34.3424 11.5207L34.5444 25.6676C34.5775 27.9888 34.0792 30.3291 33.1036 32.4354C32.1278 34.5417 30.6648 36.4351 28.8729 37.9108L20.0201 45.2009C19.8806 45.3155 19.7056 45.3782 19.525 45.3781ZM6.25597 12.1783L6.06314 25.6895C6.00201 29.9704 7.86245 33.9864 11.1674 36.708L19.525 43.5902L27.8826 36.708C31.1876 33.9864 33.048 29.9704 32.9869 25.6895L32.794 12.1776C28.3862 11.2973 24.9601 9.7706 22.8269 8.61889C21.2339 7.75871 20.1207 6.98603 19.5251 6.5406C18.9295 6.98617 17.8163 7.75898 16.2232 8.61929C14.0899 9.77114 10.6638 11.2981 6.25597 12.1783Z" fill="white"/>
<path fill-rule="evenodd" clip-rule="evenodd" d="M19.5262 31.8678C17.2847 31.8678 15.1775 30.9949 13.5925 29.4099C12.0075 27.8251 11.1348 25.7177 11.1348 23.4764C11.1348 21.235 12.0076 19.1276 13.5925 17.5427C15.1773 15.9577 17.2847 15.0849 19.5262 15.0849C21.7677 15.0849 23.8749 15.9578 25.4598 17.5427C27.0446 19.1275 27.9175 21.2349 27.9175 23.4764C27.9175 25.7179 27.0446 27.8251 25.4598 29.4101C23.8749 30.9951 21.7676 31.8678 19.5262 31.8678ZM19.5262 16.6427C15.7581 16.6427 12.6926 19.7083 12.6926 23.4764C12.6926 27.2444 15.7581 30.31 19.5262 30.31C23.2943 30.31 26.3598 27.2444 26.3598 23.4764C26.3598 19.7083 23.2943 16.6427 19.5262 16.6427Z" fill="#F3A13D"/>
<path fill-rule="evenodd" clip-rule="evenodd" d="M18.0391 26.8277C17.9368 26.8278 17.8354 26.8077 17.7409 26.7686C17.6464 26.7294 17.5605 26.672 17.4883 26.5996L15.316 24.4273C15.17 24.2812 15.0879 24.0831 15.0879 23.8765C15.0879 23.6699 15.17 23.4718 15.316 23.3257C15.4621 23.1797 15.6602 23.0976 15.8668 23.0976C16.0734 23.0976 16.2715 23.1797 16.4176 23.3257L18.0391 24.9472L22.633 20.3533C22.779 20.2073 22.9772 20.1252 23.1837 20.1252C23.3903 20.1252 23.5884 20.2073 23.7345 20.3533C23.8806 20.4994 23.9627 20.6975 23.9627 20.9041C23.9627 21.1107 23.8806 21.3088 23.7345 21.4549L18.5898 26.5996C18.5176 26.672 18.4317 26.7294 18.3372 26.7686C18.2427 26.8077 18.1414 26.8278 18.0391 26.8277Z" fill="#F3A13D"/>
</svg>
