<svg width="51" height="50" viewBox="0 0 51 50" fill="none" xmlns="http://www.w3.org/2000/svg">
<path d="M30.9874 36.0176C35.2267 31.4492 31.7804 23.6406 25.4845 23.7324C19.1896 23.6455 15.7413 31.4434 19.9816 36.0166C15.8644 37.8789 12.9445 41.6689 12.1935 46.125C11.9572 47.5654 12.9328 48.9258 14.3732 49.1621C14.5128 49.1856 14.6544 49.1963 14.796 49.1973H36.171C37.6408 49.1875 38.8244 47.9873 38.8146 46.5176C38.8136 46.3857 38.8029 46.2549 38.7824 46.125C38.0245 41.6699 35.1036 37.8828 30.9874 36.0176ZM19.8898 31.1143C19.8937 28.0254 22.3966 25.5225 25.4855 25.5186H25.4865C28.5753 25.5225 31.0783 28.0254 31.0812 31.1143C30.8175 38.5195 20.1515 38.5186 19.8898 31.1143ZM36.8263 47.1084C36.6642 47.3027 36.424 47.4141 36.172 47.4121H14.796C14.547 47.4131 14.3107 47.3027 14.1515 47.1113C13.9855 46.9189 13.9152 46.6621 13.9581 46.4121C14.6603 42.2471 17.5421 38.7773 21.5079 37.3242C23.9288 38.8877 27.0412 38.8877 29.462 37.3242C33.4288 38.7803 36.3126 42.248 37.0197 46.4141C37.0626 46.6621 36.9913 46.917 36.8263 47.1084Z" fill="white"/>
<path d="M50.4072 16.125C50.1738 15.374 49.4746 14.8662 48.6875 14.875L45.8262 14.8604L44.9482 12.1582C44.6387 11.208 43.6182 10.6895 42.6689 10.998C42.1191 11.1768 41.6885 11.6084 41.5088 12.1582L40.6104 14.875H37.7695C36.7705 14.875 35.9609 15.6855 35.9609 16.6846C35.9609 17.2637 36.2383 17.8066 36.7061 18.1475L39.0127 19.8418L38.1348 22.543C37.8262 23.4932 38.3457 24.5137 39.2959 24.8223C39.8467 25.001 40.4492 24.9053 40.918 24.5654L43.2422 22.8955L45.5391 24.5654C46.3477 25.1523 47.4785 24.9736 48.0654 24.165C48.4053 23.6963 48.501 23.0938 48.3223 22.543L47.4531 19.8174L49.75 18.1475C50.3906 17.6914 50.6572 16.8701 50.4072 16.125ZM46.4033 18.3701C45.7676 18.8291 45.501 19.6475 45.7461 20.3936L46.5889 23.1191L44.292 21.4492C43.6582 20.9873 42.7988 20.9873 42.165 21.4492L39.834 23.0947L40.7109 20.3945C40.9551 19.6494 40.6904 18.8311 40.0547 18.3711L37.7695 16.6611H40.6094C41.3936 16.6621 42.0889 16.1562 42.3301 15.4111C42.3379 15.4307 43.2412 12.626 43.25 12.71L44.127 15.4131C44.3691 16.1582 45.0635 16.6631 45.8477 16.6621L48.7002 16.7021L46.4033 18.3701Z" fill="white"/>
<path d="M12.9279 23.0723C12.926 22.8926 12.8977 22.7139 12.843 22.543L11.9729 19.8174L14.2697 18.1475C15.0773 17.5596 15.2551 16.4277 14.6672 15.6211C14.3273 15.1543 13.7854 14.8779 13.2082 14.877L10.3469 14.8613L9.46895 12.1592C9.15938 11.209 8.13887 10.6904 7.18965 10.999C6.63985 11.1777 6.20918 11.6094 6.02949 12.1592L5.13106 14.876H2.29024C1.28633 14.8906 0.485549 15.7168 0.500198 16.7207C0.508987 17.2832 0.777542 17.8106 1.22774 18.1475L3.5334 19.8418L2.65645 22.543C2.36055 23.502 2.89766 24.5195 3.85762 24.8154C4.39571 24.9815 4.97969 24.8887 5.43965 24.5645L7.76289 22.8945C8.59688 23.4111 10.2883 25.0244 11.1242 24.917C12.1311 24.9053 12.9387 24.0801 12.9279 23.0723ZM10.2668 20.3936L11.1096 23.1191C10.1965 22.5449 8.59981 21.001 7.74922 21.1025C6.9211 20.9981 5.22481 22.5674 4.35469 23.0947C5.80391 18.7207 5.94258 19.3887 2.28926 16.6621H5.13008C5.91426 16.6631 6.60957 16.1572 6.85078 15.4121L7.76289 12.6953C7.77461 12.6895 8.63887 15.4121 8.64668 15.4141C8.88887 16.1592 9.58321 16.6641 10.3674 16.6631L13.2209 16.7031L10.924 18.3711C10.2873 18.8301 10.0217 19.6475 10.2668 20.3936Z" fill="white"/>
<path d="M15.4044 11.3623L19.0665 14.0244C19.2648 14.168 19.3488 14.4238 19.2726 14.6572L17.8742 18.9619C17.4894 20.209 18.1876 21.5322 19.4347 21.917C20.1339 22.1328 20.8947 22.0127 21.4933 21.5908L25.1554 18.9297C25.3536 18.7842 25.6232 18.7842 25.8204 18.9297L29.4826 21.5918C30.5324 22.3564 32.0031 22.125 32.7677 21.0752C33.212 20.4648 33.3361 19.6787 33.1027 18.9619L31.7042 14.6572C31.6281 14.4238 31.7111 14.168 31.9093 14.0244L35.5724 11.3633C36.6232 10.6006 36.8576 9.12989 36.0949 8.07911C35.6525 7.46875 34.9435 7.1084 34.1906 7.1084H29.6642C29.4191 7.10938 29.2013 6.95118 29.1251 6.7168L27.7267 2.41211C27.3107 1.17676 25.9718 0.511722 24.7365 0.927738C24.0363 1.16309 23.4874 1.71289 23.2521 2.41211L21.8536 6.7168C21.7785 6.9502 21.5607 7.1084 21.3146 7.1084H16.7882C15.4845 7.12305 14.4396 8.19043 14.4533 9.49414C14.4601 10.2314 14.8126 10.9229 15.4044 11.3623ZM16.2492 9.28516C16.3175 9.04688 16.5402 8.88575 16.7882 8.89356H21.3146C22.3341 8.89551 23.2384 8.23828 23.5519 7.26758L24.9513 2.96289C25.0421 2.66602 25.3566 2.49805 25.6535 2.58887C25.8322 2.64356 25.9728 2.78321 26.0275 2.96289L27.4259 7.26758C27.7394 8.23828 28.6437 8.89551 29.6632 8.89356H34.1896C34.5001 8.88868 34.756 9.13575 34.7619 9.44629C34.7648 9.63282 34.6749 9.80957 34.5216 9.917L30.8595 12.5781C30.0333 13.1758 29.6876 14.2393 30.005 15.209L31.4035 19.5137C31.5001 19.8106 31.338 20.1299 31.0411 20.2266C30.8693 20.2822 30.6808 20.2529 30.5343 20.1465L26.8712 17.4854C26.048 16.8838 24.9298 16.8838 24.1056 17.4854L20.4435 20.1475C20.1954 20.335 19.8429 20.2852 19.6554 20.0381C19.5421 19.8887 19.5109 19.6924 19.5724 19.5147L20.9708 15.21C21.2872 14.2402 20.9425 13.1777 20.1163 12.5791L16.4542 9.91797C16.2501 9.77832 16.1652 9.51758 16.2492 9.28516Z" fill="#F3A13D"/>
</svg>
