<svg width="41" height="50" viewBox="0 0 41 50" fill="none" xmlns="http://www.w3.org/2000/svg">
<path d="M40.0501 45.0508L34.4033 30.2023C34.9612 29.8687 35.4461 29.4261 35.829 28.9008C36.2405 28.3353 36.5222 27.686 36.654 26.9992C36.7858 26.3124 36.7645 25.605 36.5915 24.9273C36.4453 24.3349 36.4698 23.7132 36.6623 23.1342C36.8548 22.5552 37.2073 22.0425 37.679 21.6555C38.2254 21.2078 38.6654 20.6443 38.9672 20.0057C39.2691 19.3672 39.4252 18.6695 39.4244 17.9632C39.4236 17.2569 39.2658 16.5596 38.9625 15.9217C38.6591 15.2839 38.2178 14.7214 37.6705 14.275C37.2004 13.8866 36.8498 13.3731 36.6593 12.7938C36.4688 12.2145 36.4461 11.5932 36.5939 11.0016C36.7656 10.325 36.7861 9.61883 36.6539 8.93341C36.5217 8.24799 36.2401 7.60013 35.829 7.03594C35.4078 6.45651 34.864 5.97708 34.2364 5.6318C33.6088 5.28651 32.9127 5.08386 32.1978 5.03828C31.5827 4.99691 30.9912 4.78523 30.4896 4.42692C29.9879 4.06861 29.5958 3.57779 29.3572 3.00938C29.0901 2.35874 28.6842 1.7742 28.168 1.29654C27.6517 0.818879 27.0375 0.459596 26.3681 0.24375C25.689 0.0216964 24.9697 -0.0495821 24.2602 0.0348835C23.5508 0.119349 22.8683 0.357527 22.2603 0.732813C21.7302 1.05673 21.121 1.22812 20.4998 1.22812C19.8785 1.22812 19.2693 1.05673 18.7392 0.732813C18.1312 0.357527 17.4487 0.119349 16.7393 0.0348835C16.0298 -0.0495821 15.3105 0.0216964 14.6314 0.24375C13.9622 0.459742 13.3481 0.819086 12.832 1.29674C12.3159 1.77438 11.9102 2.35884 11.6431 3.00938C11.4038 3.5788 11.0106 4.07031 10.5077 4.42881C10.0047 4.78731 9.41179 4.99863 8.79546 5.03906C8.08155 5.08517 7.38658 5.28809 6.76003 5.63337C6.13348 5.97865 5.59074 6.4578 5.17046 7.03672C4.7591 7.60225 4.47755 8.25157 4.34589 8.93838C4.21422 9.62519 4.23568 10.3326 4.40874 11.0102C4.55504 11.6027 4.53054 12.2245 4.33808 12.8037C4.14562 13.3829 3.79307 13.8957 3.32124 14.2828C2.7751 14.7306 2.33529 15.2941 2.03359 15.9326C1.73189 16.5711 1.57585 17.2687 1.57675 17.9749C1.57764 18.6811 1.73546 19.3783 2.03878 20.016C2.3421 20.6538 2.78334 21.2162 3.33061 21.6625C3.80058 22.051 4.151 22.5646 4.34137 23.1438C4.53174 23.7231 4.55428 24.3444 4.40639 24.9359C4.23466 25.6125 4.21416 26.3187 4.34635 27.0041C4.47855 27.6895 4.76019 28.3374 5.17124 28.9016C5.55425 29.4266 6.03917 29.869 6.59702 30.2023L0.950143 45.0508C0.897243 45.1903 0.885418 45.3421 0.916069 45.4882C0.946719 45.6342 1.01856 45.7684 1.1231 45.875C1.22764 45.9815 1.36049 46.0558 1.50595 46.0892C1.65141 46.1226 1.80338 46.1136 1.94389 46.0633L8.09468 43.8523L11.2205 49.5922C11.2876 49.7155 11.3867 49.8185 11.5074 49.8903C11.6281 49.962 11.766 50 11.9064 50L11.9587 49.9984C12.1079 49.9885 12.2511 49.9359 12.3713 49.847C12.4915 49.7581 12.5837 49.6366 12.6369 49.4969L17.9236 35.6023C18.2074 35.495 18.4807 35.3616 18.74 35.2039C19.27 34.8802 19.8791 34.709 20.5001 34.709C21.1212 34.709 21.7302 34.8802 22.2603 35.2039C22.519 35.3596 22.7915 35.492 23.0744 35.5977L28.3634 49.4961C28.4166 49.6358 28.5088 49.7574 28.629 49.8463C28.7492 49.9352 28.8924 49.9877 29.0415 49.9977L29.0939 49.9992C29.2343 49.9992 29.3721 49.9613 29.4929 49.8895C29.6136 49.8177 29.7127 49.7148 29.7798 49.5914L32.9048 43.8516L39.0564 46.0625C39.1969 46.1128 39.3489 46.1218 39.4943 46.0884C39.6398 46.055 39.7726 45.9807 39.8772 45.8742C39.9817 45.7677 40.0536 45.6334 40.0842 45.4874C40.1149 45.3413 40.103 45.1903 40.0501 45.0508ZM11.7814 47.3531L9.1478 42.5172C9.05865 42.3535 8.91389 42.227 8.73968 42.1607C8.56546 42.0944 8.37326 42.0925 8.1978 42.1555L3.01421 44.0188L8.04858 30.7828C8.2968 30.8409 8.5491 30.8798 8.80327 30.8992C9.41837 30.9406 10.0098 31.1523 10.5115 31.5106C11.0132 31.8689 11.4052 32.3597 11.6439 32.9281C11.911 33.5788 12.3168 34.1633 12.8331 34.641C13.3493 35.1186 13.9636 35.4779 14.633 35.6938C15.1159 35.8498 15.62 35.9304 16.1275 35.9328L11.7814 47.3531ZM17.9189 33.875C17.5042 34.1311 17.0385 34.2936 16.5545 34.351C16.0705 34.4085 15.5797 34.3596 15.1165 34.2078C14.6632 34.0619 14.247 33.819 13.8972 33.4958C13.5473 33.1727 13.2721 32.7771 13.0908 32.3367C12.7398 31.4974 12.1619 30.7725 11.422 30.2431C10.6821 29.7138 9.80939 29.401 8.90171 29.3398C8.41646 29.3087 7.94404 29.171 7.51803 28.9366C7.09202 28.7022 6.72288 28.3768 6.43686 27.9836C6.16021 27.6033 5.97091 27.1667 5.88245 26.7048C5.794 26.243 5.80858 25.7673 5.92514 25.3117C6.14295 24.4323 6.10748 23.5091 5.82284 22.6489C5.53819 21.7888 5.01598 21.0267 4.31655 20.4508C3.94788 20.1496 3.65095 19.77 3.44733 19.3397C3.24372 18.9094 3.13854 18.4391 3.13944 17.963C3.14033 17.4869 3.24729 17.017 3.45252 16.5875C3.65776 16.1579 3.95612 15.7795 4.32592 15.4797C5.02355 14.9023 5.54367 14.1393 5.82622 13.2789C6.10878 12.4185 6.14226 11.4958 5.9228 10.6172C5.80744 10.1626 5.79369 9.68825 5.88255 9.22779C5.9714 8.76733 6.16066 8.33212 6.43686 7.95313C6.72406 7.5591 7.09462 7.23327 7.52216 6.99884C7.94969 6.76441 8.42366 6.62717 8.9103 6.59688C9.81636 6.53443 10.6872 6.22112 11.4253 5.69199C12.1635 5.16287 12.7399 4.43879 13.09 3.60078C13.2713 3.16011 13.5467 2.76435 13.8969 2.44117C14.247 2.11798 14.6636 1.87517 15.1173 1.72969C15.5807 1.578 16.0715 1.52919 16.5556 1.58667C17.0398 1.64415 17.5055 1.80653 17.9205 2.0625C18.6978 2.53714 19.5909 2.78826 20.5017 2.78826C21.4125 2.78826 22.3056 2.53714 23.083 2.0625C23.4978 1.8066 23.9634 1.64425 24.4474 1.58677C24.9314 1.52929 25.4221 1.57806 25.8853 1.72969C26.3389 1.87554 26.7552 2.11859 27.1052 2.44188C27.4553 2.76518 27.7305 3.16094 27.9119 3.60156C28.2628 4.44064 28.8404 5.16544 29.58 5.69475C30.3196 6.22406 31.1919 6.53698 32.0994 6.59844C32.5847 6.62944 33.0572 6.76696 33.4833 7.00123C33.9095 7.2355 34.2788 7.56077 34.565 7.95391C34.8416 8.33417 35.0309 8.77081 35.1194 9.23267C35.2078 9.69452 35.1933 10.1702 35.0767 10.6258C34.8589 11.5052 34.8944 12.4284 35.179 13.2886C35.4637 14.1487 35.9859 14.9108 36.6853 15.4867C37.054 15.7879 37.3509 16.1675 37.5545 16.5978C37.7581 17.0281 37.8633 17.4984 37.8624 17.9745C37.8615 18.4506 37.7546 18.9205 37.5493 19.35C37.3441 19.7796 37.0457 20.158 36.6759 20.4578C35.9783 21.0352 35.4582 21.7982 35.1756 22.6586C34.8931 23.519 34.8596 24.4417 35.079 25.3203C35.1944 25.7749 35.2082 26.2492 35.1193 26.7097C35.0304 27.1702 34.8412 27.6054 34.565 27.9844C34.2777 28.3783 33.9071 28.7039 33.4796 28.9382C33.0521 29.1725 32.5781 29.3096 32.0915 29.3398C31.1854 29.4024 30.3145 29.7158 29.5764 30.2451C28.8382 30.7743 28.2619 31.4986 27.9119 32.3367C27.7305 32.7774 27.4552 33.1731 27.105 33.4963C26.7548 33.8195 26.3383 34.0623 25.8845 34.2078C25.4213 34.36 24.9303 34.409 24.4461 34.3516C23.9619 34.2941 23.4961 34.1314 23.0814 33.875C22.3041 33.4004 21.4109 33.1492 20.5001 33.1492C19.5894 33.1492 18.6962 33.4004 17.9189 33.875ZM32.804 42.1555C32.6286 42.0925 32.4364 42.0944 32.2622 42.1607C32.088 42.227 31.9432 42.3535 31.854 42.5172L29.2212 47.3531L24.8751 35.9344C25.3824 35.9316 25.8862 35.8507 26.3689 35.6945C27.0384 35.4785 27.6528 35.1191 28.1691 34.6413C28.6855 34.1635 29.0915 33.5789 29.3587 32.9281C29.5977 32.3587 29.9907 31.8671 30.4936 31.5085C30.9965 31.15 31.5893 30.9387 32.2056 30.8984C32.4574 30.8791 32.7074 30.8404 32.9533 30.7828L37.9876 44.018L32.804 42.1555Z" fill="white"/>
<path d="M32.2188 17.9687C32.2188 15.651 31.5315 13.3853 30.2438 11.4582C28.9561 9.53102 27.1259 8.029 24.9846 7.14203C22.8433 6.25507 20.487 6.023 18.2138 6.47517C15.9406 6.92734 13.8525 8.04344 12.2136 9.68234C10.5747 11.3212 9.4586 13.4093 9.00643 15.6825C8.55426 17.9557 8.78633 20.312 9.67329 22.4533C10.5603 24.5946 12.0623 26.4249 13.9894 27.7125C15.9166 29.0002 18.1823 29.6875 20.5 29.6875C23.6069 29.684 26.5856 28.4482 28.7825 26.2513C30.9795 24.0543 32.2152 21.0757 32.2188 17.9687ZM20.5 28.125C18.4913 28.125 16.5277 27.5293 14.8575 26.4134C13.1873 25.2974 11.8856 23.7112 11.1169 21.8554C10.3482 19.9996 10.147 17.9575 10.5389 15.9874C10.9308 14.0172 11.8981 12.2076 13.3185 10.7872C14.7388 9.36682 16.5485 8.39953 18.5186 8.00765C20.4887 7.61577 22.5308 7.81689 24.3866 8.5856C26.2424 9.3543 27.8286 10.6561 28.9446 12.3262C30.0606 13.9964 30.6563 15.96 30.6563 17.9687C30.6532 20.6614 29.5821 23.2429 27.6781 25.1469C25.7741 27.0509 23.1927 28.1219 20.5 28.125Z" fill="white"/>
<path d="M26.7134 15.3781L22.904 14.825L21.2009 11.3734C21.1292 11.2514 21.0268 11.1503 20.904 11.08C20.7811 11.0097 20.642 10.9728 20.5005 10.9728C20.359 10.9728 20.2199 11.0097 20.0971 11.08C19.9742 11.1503 19.8719 11.2514 19.8001 11.3734L18.0962 14.825L14.2868 15.3781C14.1425 15.399 14.0068 15.4598 13.8953 15.5537C13.7837 15.6477 13.7006 15.771 13.6555 15.9097C13.6104 16.0484 13.605 16.1969 13.6399 16.3386C13.6749 16.4802 13.7488 16.6092 13.8533 16.7109L16.6111 19.3984L15.9603 23.1914C15.9358 23.335 15.9519 23.4825 16.0068 23.6174C16.0617 23.7523 16.1532 23.8692 16.271 23.9548C16.3888 24.0405 16.5282 24.0915 16.6735 24.1021C16.8188 24.1127 16.9641 24.0825 17.0931 24.0148L20.5001 22.2242L23.9072 24.0148C24.0362 24.0825 24.1815 24.1127 24.3267 24.1021C24.472 24.0915 24.6114 24.0405 24.7292 23.9548C24.847 23.8692 24.9386 23.7523 24.9935 23.6174C25.0484 23.4825 25.0645 23.335 25.04 23.1914L24.3892 19.3977L27.147 16.7109C27.2515 16.6092 27.3254 16.4802 27.3603 16.3386C27.3953 16.1969 27.3899 16.0484 27.3447 15.9097C27.2996 15.771 27.2166 15.6477 27.105 15.5537C26.9934 15.4598 26.8578 15.399 26.7134 15.3781ZM23.0048 18.5656C22.9143 18.6541 22.8466 18.7633 22.8075 18.8837C22.7684 19.0041 22.7592 19.1322 22.7806 19.257L23.2329 21.8953L20.8634 20.65C20.7514 20.5912 20.6267 20.5604 20.5001 20.5604C20.3736 20.5604 20.2489 20.5912 20.1368 20.65L17.7673 21.8953L18.2204 19.257C18.2417 19.1322 18.2324 19.004 18.1932 18.8836C18.154 18.7632 18.0861 18.654 17.9954 18.5656L16.0783 16.6969L18.7267 16.3117C18.8522 16.2937 18.9714 16.2454 19.0741 16.1709C19.1767 16.0965 19.2597 15.9981 19.3158 15.8844L20.5001 13.4844L21.6853 15.8844C21.7411 15.9981 21.8238 16.0964 21.9261 16.171C22.0285 16.2456 22.1475 16.2942 22.2728 16.3125L24.922 16.6969L23.0048 18.5656Z" fill="#F3A13D"/>
</svg>
