<svg width="39" height="50" viewBox="0 0 39 50" fill="none" xmlns="http://www.w3.org/2000/svg">
<path d="M23.8945 29.9805C21.2578 29.9805 19.6953 31.25 18.5234 33.3984C17.2539 31.3477 15.7891 29.9805 13.0547 29.9805C9.73438 29.9805 7 32.8125 7 36.3281C7 41.0156 10.5156 45.5078 14.3242 49.707C14.5195 49.8047 14.6172 49.9023 14.8125 49.9023C15.0078 49.9023 15.2031 49.8047 15.3008 49.707C15.5938 49.5117 15.5938 49.0234 15.3984 48.7305C11.7852 44.8242 8.36719 40.5273 8.36719 36.3281C8.36719 33.5938 10.5156 31.3477 13.0547 31.3477C15.3008 31.3477 16.4727 32.3242 17.9375 35.1562C18.0352 35.3516 18.3281 35.5469 18.6211 35.5469C18.8164 35.5469 19.1094 35.3516 19.207 35.1562C20.4766 32.3242 21.7461 31.3477 23.8945 31.3477C26.5312 31.3477 28.582 33.5938 28.582 36.3281C28.582 40.4297 25.3594 44.6289 22.5273 47.8516C22.332 48.1445 22.332 48.6328 22.625 48.8281C22.918 49.1211 23.3086 49.0234 23.6016 48.8281C26.7266 45.2148 29.9492 40.8203 29.9492 36.3281C29.9492 32.8125 27.3125 29.9805 23.8945 29.9805Z" fill="#F3A13D"/>
<path fill-rule="evenodd" clip-rule="evenodd" d="M16.9606 50.0001C16.4723 50.0001 15.984 50.0001 15.4958 49.9024C9.14811 49.4141 4.16764 45.6055 1.92155 39.4532C-0.812827 32.2266 0.261392 24.2188 4.55827 18.5547C4.75358 18.2618 5.1442 18.1641 5.43717 18.3594C5.73014 18.4571 5.8278 18.8477 5.73014 19.1407C4.65592 23.0469 4.94889 26.0743 6.60905 27.2461C7.48795 27.8321 8.56217 27.8321 9.34342 27.2461C10.5153 26.3672 10.9059 24.8047 10.32 22.8516C10.2223 22.6563 9.53874 20.8985 9.73405 18.7501C9.8317 16.6016 10.7106 13.5743 14.2262 11.5235C14.3239 11.5235 17.7419 9.66802 18.3278 7.0313C18.5231 5.95708 18.1325 4.78521 17.0583 3.61333C16.863 3.32036 16.863 2.92974 17.0583 2.73443C17.2536 2.44146 17.5465 2.3438 17.8395 2.53911C17.9372 2.53911 19.4997 3.22271 20.8669 4.68755C22.7223 6.54302 23.3083 8.98443 22.527 11.5235C20.8669 16.4063 22.1364 19.629 23.8942 20.9961C25.0661 21.9727 26.4333 22.168 27.5075 21.4844C29.2653 20.4102 29.8512 17.5782 29.07 13.7696C28.9723 13.379 29.1676 13.086 29.4606 12.9883C29.7536 12.793 30.0465 12.9883 30.2419 13.1836C39.5192 26.4649 36.5895 35.8399 34.0505 40.2344C32.195 43.4571 29.4606 46.0938 25.945 47.754C23.113 49.2188 19.988 50.0001 16.9606 50.0001ZM3.67936 22.461C1.33561 27.3438 1.1403 33.3985 3.19108 39.0626C5.24186 44.629 9.73405 48.0469 15.5934 48.5352C22.527 49.1211 29.4606 45.5079 32.8786 39.5508C36.6872 33.1055 35.9059 24.9024 30.7301 16.4063C30.8278 20.5079 29.07 22.168 28.1911 22.6563C26.6286 23.6329 24.6755 23.4376 23.0153 22.0704C20.9645 20.4102 19.3044 16.6016 21.2575 11.1329C21.8434 9.08208 21.3551 7.22661 19.8903 5.56646C19.7926 5.4688 19.695 5.37114 19.4997 5.27349C19.695 5.95708 19.7926 6.64068 19.5973 7.32427C19.0114 10.5469 15.2028 12.5001 14.9098 12.6954C12.4684 14.1602 11.1989 16.211 11.0036 18.8477C10.9059 20.8008 11.5895 22.3633 11.5895 22.3633V22.461C12.4684 25.3907 11.4919 27.4415 10.2223 28.3204C8.85514 29.2969 7.19499 29.2969 5.8278 28.3204C5.04655 27.8321 3.48405 26.1719 3.67936 22.461Z" fill="white"/>
<path d="M38.5427 4.00391C38.445 3.71094 38.2497 3.51562 37.9567 3.51562L34.9294 3.22266L33.6598 0.390625C33.5622 0.195312 33.2692 0 32.9763 0C32.7809 0 32.488 0.195312 32.3903 0.390625L31.1208 3.125L27.9958 3.51562C27.8005 3.51562 27.6052 3.71094 27.5075 4.00391C27.4098 4.19922 27.4098 4.49219 27.6052 4.6875L29.9489 6.83594L29.2653 9.96094C29.2653 10.1562 29.363 10.4492 29.5583 10.6445C29.8513 10.7422 30.0466 10.7422 30.3395 10.6445L32.9763 9.08203L35.7106 10.6445C35.8083 10.7422 35.9059 10.7422 36.0036 10.7422C36.1989 10.7422 36.2966 10.7422 36.3942 10.6445C36.5895 10.4492 36.7848 10.2539 36.6872 9.96094L36.1989 6.83594L38.3473 4.6875C38.5427 4.49219 38.6403 4.19922 38.5427 4.00391ZM34.9294 6.15234C34.8317 6.34766 34.7341 6.54297 34.7341 6.73828L35.1247 8.69141L33.3669 7.71484C33.2692 7.61719 33.1716 7.61719 32.9763 7.61719C32.8786 7.61719 32.7809 7.61719 32.6833 7.71484L30.9255 8.69141L31.3161 6.73828C31.4138 6.54297 31.3161 6.34766 31.1208 6.15234L29.6559 4.6875L31.6091 4.49219C31.902 4.49219 32.0973 4.29688 32.195 4.10156L32.9763 2.34375L33.8552 4.10156C33.9528 4.29688 34.1481 4.49219 34.4411 4.49219L36.3942 4.6875L34.9294 6.15234Z" fill="white"/>
<path d="M9.05003 11.6211C9.14769 11.7188 9.24534 11.7188 9.343 11.7188C9.53831 11.7188 9.63597 11.6211 9.83128 11.6211C10.0266 11.4258 10.1242 11.1328 10.0266 10.8398L9.44065 7.8125L11.6867 5.76172C11.8821 5.56641 11.9797 5.27344 11.8821 5.07812C11.7844 4.78516 11.5891 4.6875 11.2961 4.58984L8.26878 4.19922L6.99925 1.36719C6.90159 1.17188 6.60862 0.976562 6.31565 0.976562C6.12034 0.976562 5.82737 1.07422 5.72972 1.36719L4.46019 4.10156L1.33519 4.58984C1.13987 4.58984 0.944561 4.78516 0.846905 5.07812C0.749249 5.27344 0.846905 5.56641 1.04222 5.76172L3.19065 7.91016L2.70237 10.9375C2.60472 11.2305 2.70237 11.4258 2.89769 11.6211C3.19065 11.7188 3.38597 11.7188 3.67894 11.6211L6.31565 10.1562L9.05003 11.6211ZM4.26487 9.76562L4.55784 7.71484C4.6555 7.51953 4.55784 7.32422 4.36253 7.12891L2.99534 5.76172L4.94847 5.46875C5.24144 5.46875 5.43675 5.27344 5.5344 5.07812L6.31565 3.22266L7.19456 5.07812C7.29222 5.27344 7.48753 5.46875 7.68284 5.46875L9.73362 5.76172L8.26878 7.12891C8.07347 7.22656 7.97581 7.51953 7.97581 7.71484L8.46409 9.76562L6.70628 8.78906C6.51097 8.69141 6.218 8.69141 6.02269 8.78906L4.26487 9.76562Z" fill="white"/>
</svg>
