<svg width="16.686035" height="20.000000" viewBox="0 0 16.686 20" fill="none" xmlns="http://www.w3.org/2000/svg" xmlns:xlink="http://www.w3.org/1999/xlink">
	<desc>
			Created with Pixso.
	</desc>
	<defs/>
	<path id="Vector" d="M8.21 9.63C9.54 9.63 10.68 9.15 11.62 8.22C12.55 7.28 13.03 6.14 13.03 4.81C13.03 3.49 12.55 2.34 11.62 1.41C10.68 0.47 9.54 0 8.21 0C6.89 0 5.74 0.47 4.81 1.41C3.87 2.34 3.39 3.49 3.39 4.81C3.39 6.14 3.87 7.28 4.81 8.22C5.74 9.15 6.89 9.63 8.21 9.63L8.21 9.63ZM5.63 2.23C6.35 1.52 7.2 1.17 8.21 1.17C9.23 1.17 10.07 1.52 10.79 2.23C11.51 2.95 11.86 3.8 11.86 4.81C11.86 5.83 11.51 6.67 10.79 7.39C10.07 8.11 9.23 8.46 8.21 8.46C7.2 8.46 6.35 8.11 5.63 7.39C4.92 6.67 4.57 5.83 4.57 4.81C4.57 3.8 4.92 2.95 5.63 2.23ZM16.64 15.37C16.61 14.98 16.56 14.56 16.48 14.11C16.4 13.66 16.29 13.23 16.17 12.84C16.04 12.44 15.86 12.04 15.65 11.65C15.42 11.26 15.16 10.91 14.86 10.63C14.55 10.33 14.17 10.09 13.73 9.92C13.29 9.74 12.8 9.66 12.28 9.66C12.08 9.66 11.88 9.74 11.5 9.99C11.23 10.16 10.96 10.34 10.68 10.51C10.42 10.68 10.07 10.84 9.63 10.98C9.2 11.12 8.77 11.19 8.34 11.19C7.91 11.19 7.47 11.12 7.05 10.98C6.61 10.84 6.25 10.68 5.99 10.51C5.69 10.32 5.41 10.14 5.18 9.99C4.79 9.74 4.6 9.66 4.39 9.66C3.87 9.66 3.39 9.74 2.95 9.92C2.51 10.09 2.13 10.33 1.82 10.63C1.52 10.91 1.26 11.26 1.03 11.65C0.81 12.04 0.64 12.44 0.51 12.84C0.38 13.23 0.28 13.66 0.2 14.11C0.12 14.56 0.06 14.98 0.04 15.37C0.01 15.76 0 16.15 0 16.56C0 17.6 0.33 18.44 0.98 19.07C1.63 19.68 2.48 20 3.52 20L13.15 20C14.19 20 15.05 19.68 15.69 19.07C16.35 18.45 16.68 17.6 16.68 16.56C16.68 16.15 16.67 15.75 16.64 15.37ZM14.89 18.22C14.46 18.63 13.89 18.82 13.15 18.82L3.52 18.82C2.78 18.82 2.22 18.63 1.79 18.22C1.37 17.82 1.17 17.28 1.17 16.56C1.17 16.18 1.18 15.81 1.2 15.46C1.23 15.11 1.28 14.72 1.35 14.32C1.42 13.92 1.51 13.54 1.62 13.2C1.73 12.87 1.87 12.55 2.05 12.23C2.22 11.94 2.41 11.68 2.63 11.48C2.83 11.28 3.08 11.13 3.38 11.01C3.66 10.9 3.97 10.84 4.3 10.83C4.34 10.85 4.42 10.89 4.54 10.97C4.78 11.13 5.05 11.31 5.36 11.5C5.71 11.72 6.15 11.92 6.69 12.09C7.23 12.27 7.79 12.36 8.34 12.36C8.89 12.36 9.44 12.27 9.99 12.09C10.52 11.92 10.97 11.72 11.31 11.5C11.63 11.3 11.9 11.13 12.14 10.97C12.26 10.89 12.33 10.85 12.37 10.83C12.71 10.84 13.02 10.9 13.3 11.01C13.59 11.13 13.85 11.28 14.05 11.48C14.26 11.68 14.46 11.94 14.63 12.23C14.8 12.55 14.95 12.87 15.05 13.2C15.16 13.54 15.25 13.92 15.33 14.32C15.4 14.72 15.45 15.11 15.47 15.46L15.47 15.46C15.5 15.81 15.51 16.18 15.51 16.56C15.51 17.28 15.31 17.82 14.89 18.22L14.89 18.22Z" fill="#FFFFFF" fill-opacity="1.000000" fill-rule="nonzero"/>
</svg>
